<svg xmlns="http://www.w3.org/2000/svg" viewBox="0 0 147.59 114"><defs><style>.cls-1{fill:#f0f0f0;}.cls-2{fill:#e0e0e0;}.cls-3{fill:#e6e6e6;}.cls-4{fill:#f5f5f5;}.cls-5{fill:#fafafa;}.cls-10,.cls-13,.cls-6{fill:#fff;}.cls-7{fill:#476454;}.cls-8{opacity:0.5;}.cls-13,.cls-18,.cls-9{opacity:0.2;}.cls-10,.cls-11{opacity:0.3;}.cls-12{fill:#263238;}.cls-14{opacity:0.4;}.cls-15{opacity:0.7;}.cls-16{fill:#ffc3bd;}.cls-17{fill:none;stroke:#fff;stroke-linecap:round;stroke-linejoin:round;stroke-width:0.5px;}.cls-19{fill:#ed847e;}.cls-20{fill:#407bff;}</style></defs><title>Asset 1clueless svg</title><g id="Layer_2" data-name="Layer 2"><g id="Character"><path class="cls-1" d="M131,81.17H77.68A1.74,1.74,0,0,1,76,79.44V1.73A1.74,1.74,0,0,1,77.68,0H131a1.73,1.73,0,0,1,1.73,1.73V79.44A1.73,1.73,0,0,1,131,81.17ZM77.68.07A1.67,1.67,0,0,0,76,1.73V79.44a1.67,1.67,0,0,0,1.66,1.66H131a1.66,1.66,0,0,0,1.66-1.66V1.73A1.66,1.66,0,0,0,131,.07Z"/><path class="cls-1" d="M69.51,81.17H16.16a1.74,1.74,0,0,1-1.73-1.73V1.73A1.74,1.74,0,0,1,16.16,0H69.51a1.74,1.74,0,0,1,1.73,1.73V79.44A1.74,1.74,0,0,1,69.51,81.17ZM16.16.07A1.67,1.67,0,0,0,14.5,1.73V79.44a1.67,1.67,0,0,0,1.66,1.66H69.51a1.67,1.67,0,0,0,1.66-1.66V1.73A1.67,1.67,0,0,0,69.51.07Z"/><rect class="cls-2" y="99.2" width="147.59" height="0.07"/><rect class="cls-1" x="52.82" y="4.51" width="10.2" height="2.99" rx="1.49" transform="translate(115.83 12.01) rotate(-180)"/><rect class="cls-1" x="47.25" y="8.32" width="10.2" height="2.99" rx="1.49" transform="translate(104.7 19.63) rotate(180)"/><rect class="cls-1" x="18.63" y="49.35" width="10.2" height="2.99" rx="1.49"/><rect class="cls-1" x="24.19" y="53.16" width="10.2" height="2.99" rx="1.49"/><rect class="cls-1" x="108.44" y="52.36" width="10.2" height="2.99" rx="1.49"/><rect class="cls-1" x="119.57" y="52.36" width="10.2" height="2.99" rx="1.49"/><rect class="cls-1" x="114" y="56.17" width="10.2" height="2.99" rx="1.49"/><rect class="cls-3" x="124.2" y="73.82" width="10.65" height="25.37"/><rect class="cls-4" x="101.32" y="73.82" width="25.37" height="25.37"/><rect class="cls-5" x="112.79" y="73.82" width="3.14" height="25.3"/><rect class="cls-3" x="36.77" y="73.82" width="10.65" height="25.37"/><rect class="cls-4" x="13.9" y="73.82" width="25.37" height="25.37"/><rect class="cls-5" x="25.37" y="73.82" width="3.14" height="25.3"/><rect class="cls-3" x="90.67" y="87.32" width="10.65" height="11.88"/><rect class="cls-4" x="67.8" y="87.32" width="25.37" height="11.88"/><rect class="cls-5" x="79.27" y="87.32" width="3.14" height="11.84"/><rect class="cls-3" x="41.75" y="61.95" width="10.65" height="11.88"/><rect class="cls-4" x="18.87" y="61.95" width="25.37" height="11.88"/><rect class="cls-5" x="30.34" y="61.95" width="3.14" height="11.84"/><rect class="cls-3" x="81.51" y="5.69" width="23.32" height="23.32"/><rect class="cls-5" x="82.69" y="6.87" width="20.96" height="20.96" transform="translate(110.52 -75.82) rotate(90)"/><path class="cls-1" d="M91.77,23.07s3.85-7.89,11.88-8V27.83H93.17Z"/><path class="cls-4" d="M82.69,20.86a9.36,9.36,0,0,1,7-.49c4.42,1.68,7,7.46,7,7.46h-14Z"/><circle class="cls-6" cx="89.88" cy="13.51" r="3.7"/><rect class="cls-3" x="18" y="5.69" width="20.46" height="39.62"/><rect class="cls-5" x="9.6" y="16.44" width="37.25" height="18.1" transform="translate(53.73 -2.73) rotate(90)"/><circle class="cls-6" cx="25.45" cy="18.41" r="3.7"/><path class="cls-1" d="M22.56,44.12s4.58-22,14.72-24v24H22.56Z"/><path class="cls-4" d="M19.18,31.05a5.89,5.89,0,0,1,6-.9c6.94,2.52,10.81,14,10.81,14H19.18Z"/><circle class="cls-2" cx="119.1" cy="16.85" r="6.18" transform="translate(-1.17 14.75) rotate(-7.05)"/><circle class="cls-5" cx="119.1" cy="16.85" r="5.69" transform="translate(75.56 128.98) rotate(-76.83)"/><rect class="cls-2" x="118.91" y="11.67" width="0.21" height="1.19"/><rect class="cls-2" x="118.91" y="20.81" width="0.21" height="1.19"/><rect class="cls-2" x="113.85" y="16.73" width="1.19" height="0.21"/><rect class="cls-2" x="122.99" y="16.73" width="1.19" height="0.21"/><rect class="cls-2" x="121.65" y="13.5" width="1.19" height="0.21" transform="translate(26.18 90.41) rotate(-44.99)"/><rect class="cls-2" x="115.19" y="19.96" width="1.19" height="0.21" transform="translate(19.75 87.79) rotate(-45.02)"/><rect class="cls-2" x="115.68" y="13.01" width="0.21" height="1.19" transform="translate(24.31 85.87) rotate(-45.01)"/><rect class="cls-2" x="122.14" y="19.47" width="0.21" height="1.19" transform="translate(21.61 92.31) rotate(-44.99)"/><rect class="cls-2" x="119.86" y="16.09" width="0.18" height="2.16" transform="translate(60.02 122.49) rotate(-68.51)"/><polygon class="cls-2" points="119.11 16.93 115.78 16.93 115.78 16.74 118.92 16.74 118.92 14.16 119.11 14.16 119.11 16.93"/><path class="cls-4" d="M138.05,112.13c0,1-28.51,1.87-63.68,1.87s-63.68-.84-63.68-1.87,28.51-1.87,63.68-1.87S138.05,111.1,138.05,112.13Z"/><polygon class="cls-7" points="113.5 38.86 119.11 43.88 94.81 43.88 90.06 38.86 113.5 38.86"/><polygon class="cls-8" points="113.5 38.86 119.11 43.88 94.81 43.88 90.06 38.86 113.5 38.86"/><rect class="cls-7" x="90.06" y="38.86" width="23.45" height="23.45"/><rect class="cls-9" x="90.06" y="38.72" width="23.45" height="23.45"/><rect class="cls-7" x="82.53" y="38.86" width="23.45" height="23.45"/><polygon class="cls-7" points="82.54 38.86 76.94 43.88 101.23 43.88 105.98 38.86 82.54 38.86"/><polygon class="cls-10" points="82.54 38.86 76.94 43.88 101.23 43.88 105.98 38.86 82.54 38.86"/><path class="cls-6" d="M94.64,46.94c2.18,0,3.67,1.29,3.67,3.41,0,2.3-1.63,3.31-3.82,3.31L94.43,55H92.81l-.08-2.56h.54c1.84,0,3.26-.33,3.26-2a1.89,1.89,0,0,0-3.77-.05H91A3.29,3.29,0,0,1,94.64,46.94Zm-1,11.61a1.19,1.19,0,1,1,1.18-1.19A1.17,1.17,0,0,1,93.59,58.55Z"/><rect class="cls-7" x="79.35" y="62.31" width="27.65" height="2.43"/><rect class="cls-11" x="79.35" y="62.31" width="27.65" height="2.43"/><rect class="cls-7" x="107" y="62.31" width="10.27" height="2.43"/><rect class="cls-8" x="107" y="62.31" width="10.27" height="2.43"/><rect class="cls-12" x="95.98" y="64.74" width="1.67" height="45.72"/><rect class="cls-13" x="95.98" y="64.74" width="1.67" height="45.72"/><polyline class="cls-9" points="97.65 65.88 95.98 66.57 95.98 64.74 97.65 64.74 97.65 65.88"/><path class="cls-7" d="M91.08,109.53h11.47a2.41,2.41,0,0,1,2.41,2.41v0a0,0,0,0,1,0,0H88.67a0,0,0,0,1,0,0v0a2.41,2.41,0,0,1,2.41-2.41Z"/><path class="cls-7" d="M25.47,88.23A1.86,1.86,0,0,1,28,89.62c.52,2.14,2,1.59,2.3,1.12.55-.92.63-4.25-.33-4.46C28.84,86,25.88,87.25,25.47,88.23Z"/><g class="cls-14"><path d="M25.47,88.23A1.86,1.86,0,0,1,28,89.62c.52,2.14,2,1.59,2.3,1.12.55-.92.63-4.25-.33-4.46C28.84,86,25.88,87.25,25.47,88.23Z"/></g><path class="cls-7" d="M30,86.28c-2.36,0-3,2.11-3.36,3.94l-.77-1.43.54,2.54c-.06.28-.12.54-.19.76a3.83,3.83,0,0,1-2.32,2.35s-.11-.73-.2-1.76h0l.86-1.35-.93.39a13.7,13.7,0,0,1,.27-4.65,2.2,2.2,0,0,1,2.79-1.48Z"/><path class="cls-7" d="M35.9,84s-1.23-.37-2.53,1.4-1.75,1.91-2.6,1.25-.33-4.39.62-4.59C32.54,81.85,35.5,83.06,35.9,84Z"/><g class="cls-14"><path d="M35.9,84s-1.23-.37-2.53,1.4-1.75,1.91-2.6,1.25-.33-4.39.62-4.59C32.54,81.85,35.5,83.06,35.9,84Z"/></g><path class="cls-7" d="M39.89,93.72a5.61,5.61,0,0,1-2.6-1.93l1.36-3.2-1.87,2.33a4.48,4.48,0,0,1-.21-.55c-.81-2.57-.65-8.15-5.31-8.22l4.64-1.06a3.16,3.16,0,0,1,4,2.11,11,11,0,0,1,.46,3l-1.7-1.57s1.18,1.7,1.72,2.41A52.83,52.83,0,0,1,39.89,93.72Z"/><path class="cls-7" d="M24.06,79.1a1.85,1.85,0,0,1,2.53,1.4c.53,2.13,3.15,3,3.42,1.9s-.35-5.07-1.31-5.27C27.56,76.89,24.46,78.13,24.06,79.1Z"/><g class="cls-14"><path d="M24.06,79.42a1.85,1.85,0,0,1,2.53,1.4c.53,2.13,3.15,2.94,3.42,1.9s-.35-5.07-1.31-5.27C27.56,77.21,24.46,78.45,24.06,79.42Z"/></g><path class="cls-7" d="M28.79,77.14c-3.82.06-4.46,3.84-5,6.63L21.84,81c0,.08,1.05,3.43,1.45,4.76a5.52,5.52,0,0,1-3.21,3.07,47,47,0,0,1-.44-7.92l1.57-1.31-1.49.37a7.4,7.4,0,0,1,.36-1.67,3.15,3.15,0,0,1,4-2.11Z"/><path class="cls-7" d="M30.27,95.78h0a.13.13,0,0,1-.12-.14,56.24,56.24,0,0,0-2-21.78.13.13,0,1,1,.25-.09,56.22,56.22,0,0,1,2,21.9A.14.14,0,0,1,30.27,95.78Z"/><rect class="cls-12" x="25.18" y="94.93" width="10.22" height="1.43"/><rect class="cls-13" x="25.18" y="94.93" width="10.22" height="1.43"/><path class="cls-12" d="M33.75,96.36h-7c-.84,1.94-3.54,7.67-3.54,9.37,0,2,2.49,6.17,2.49,6.17,0,.3,9.07.3,9.07,0,0,0,2.5-4.17,2.5-6.17C37.3,104,34.59,98.3,33.75,96.36Z"/><circle class="cls-7" cx="44.68" cy="10.36" r="6.21"/><g class="cls-15"><circle class="cls-6" cx="44.68" cy="10.36" r="6.21"/></g><path class="cls-7" d="M44.68,16.7A6.34,6.34,0,1,1,51,10.36,6.34,6.34,0,0,1,44.68,16.7Zm0-12.42a6.08,6.08,0,1,0,6.08,6.08A6.09,6.09,0,0,0,44.68,4.28Z"/><path class="cls-7" d="M44.73,6.91A2,2,0,0,1,47,9c0,1.41-1,2-2.35,2l0,.8h-1l-.05-1.58h.33c1.14,0,2-.2,2-1.25a1.16,1.16,0,0,0-2.32,0H42.5A2,2,0,0,1,44.73,6.91Zm-.65,7.15a.73.73,0,0,1-.73-.74.73.73,0,1,1,1.46,0A.73.73,0,0,1,44.08,14.06Z"/><path class="cls-7" d="M48.56,15.21l2,1a.13.13,0,0,0,.18-.16l-.89-2.3A6.44,6.44,0,0,1,48.56,15.21Z"/><path class="cls-7" d="M50.17,26.52c.29,1.43,12.44.86,11.87-1a8.84,8.84,0,0,0-.44-1c-.79-1.7-2.1-3.83-6.35-3.82C52.7,20.77,49.34,22.32,50.17,26.52Z"/><polygon class="cls-16" points="65.22 106.77 65.84 109.91 67.51 109.91 67.73 106.77 65.22 106.77"/><path class="cls-7" d="M67.29,109.51a.7.7,0,0,1,.71-.25,3,3,0,0,1,.93.78,23.6,23.6,0,0,0,2.75.74c.59,0,1.1.36,1.32,1.5H65.9s-.28-2.57-.33-3,.66.11.66.11Z"/><path d="M72.79,111.94H71.51l-5.6-.06a.06.06,0,0,1,0-.11h.39a1.18,1.18,0,0,0-.58-1.5.06.06,0,0,1,0-.1,1.27,1.27,0,0,1,.63,1.61h.79l5.6.06A.06.06,0,0,1,72.79,111.94Z"/><path class="cls-6" d="M68.68,110.49a.68.68,0,0,1,1-.18c.06,0,.11-.06.06-.1a.8.8,0,0,0-1.17.22c0,.06,0,.12.1.06Z"/><path class="cls-6" d="M69.29,110.67a.69.69,0,0,1,1-.18c.06,0,.11,0,.06-.09a.8.8,0,0,0-1.17.22c0,.06.06.11.1,0Z"/><path class="cls-6" d="M69.92,110.86a.68.68,0,0,1,1-.18c.06,0,.12-.06.06-.1a.81.81,0,0,0-1.17.22c0,.06.06.12.1.06Z"/><polygon class="cls-16" points="50.34 106.79 50.69 109.91 52.35 109.91 52.85 106.79 50.34 106.79"/><path class="cls-7" d="M52.13,109.51a.72.72,0,0,1,.72-.25,2.9,2.9,0,0,1,.92.78,23.31,23.31,0,0,0,2.76.74c.58,0,1.09.36,1.31,1.5h-7.1s-.28-2.57-.32-3,.65.11.65.11Z"/><path d="M57.63,111.94H56.35l-5.6-.06a.06.06,0,0,1,0-.11h.39a1.16,1.16,0,0,0-.58-1.5c-.06,0,0-.13,0-.1a1.29,1.29,0,0,1,.64,1.61H52l5.59.06A.06.06,0,0,1,57.63,111.94Z"/><path class="cls-6" d="M53.52,110.49a.68.68,0,0,1,1-.18c.06,0,.11-.06.06-.1a.81.81,0,0,0-1.17.22c0,.06.06.12.1.06Z"/><path class="cls-6" d="M54.13,110.67a.7.7,0,0,1,1-.18c.05,0,.11,0,.05-.09a.79.79,0,0,0-1.16.22c0,.06.05.11.09,0Z"/><path class="cls-6" d="M54.76,110.86a.69.69,0,0,1,1-.18s.11-.06,0-.1a.79.79,0,0,0-1.16.22.05.05,0,0,0,.09.06Z"/><path class="cls-12" d="M64.67,106.88h3.67c.32-4.73,1.22-20.39.51-28.14.51-10.75-1.14-25-1.14-25H56.09a180.26,180.26,0,0,0,4.67,24.87C60.74,90.72,63.7,102.86,64.67,106.88Z"/><path class="cls-9" d="M60.14,76c2.1-8.59.25-19.72.25-19.72L58.58,69Z"/><polygon class="cls-12" points="64.23 106.78 64.5 108.18 68.71 108.16 68.71 106.77 64.23 106.78"/><path class="cls-12" d="M49.82,107h3.67a205.43,205.43,0,0,0,4.35-28.24C59.92,68,60.92,53.71,60.92,53.71H49.29s-1.08,9.66.51,25C49.49,92.05,49.74,102.86,49.82,107Z"/><polygon class="cls-12" points="49.5 106.78 49.49 108.16 53.73 108.16 53.95 106.78 49.5 106.78"/><path class="cls-7" d="M69.23,55.47c-8.06,3.1-21.2.85-21.2.85.16-3.94.29-11.75.24-18.25,0-.15,0-.3,0-.45,0-.92,0-1.81,0-2.65v-.31c0-1.66-.1-3.13-.18-4.3a4.16,4.16,0,0,1,3.24-4.64c.67-.11,1.39-.21,2.13-.29l.54-.05a51,51,0,0,1,6.42-.24h.75c.92,0,1.8.1,2.58.21a3.75,3.75,0,0,1,3.4,3.44c0,1.65.19,5.13.42,9.06.09,1.48.19,3,.3,4.58C68.24,48.53,68.78,54.41,69.23,55.47Z"/><path class="cls-7" d="M48.66,48.25h0l-1.17,2.19-.23-.12,0,0,0,0-.06,0-.14-.1L46.82,50l-.4-.32-.71-.62c-.45-.42-.88-.83-1.31-1.26-.85-.85-1.68-1.72-2.48-2.61s-1.58-1.8-2.35-2.78c-.19-.24-.38-.5-.57-.77s-.19-.27-.29-.43-.2-.33-.32-.54l-.09-.2,0-.09-.06-.18L38.13,40a1.4,1.4,0,0,1-.06-.32,2.81,2.81,0,0,1,0-.58l0-.15a.74.74,0,0,0,0-.12l0-.15a1.66,1.66,0,0,1,.12-.31l.06-.15,0-.08,0,0,.12-.21a2.94,2.94,0,0,1,.22-.31c.25-.35.45-.59.66-.85.82-1,1.64-1.83,2.46-2.7s1.66-1.7,2.5-2.53c1.69-1.66,3.4-3.27,5.19-4.83l3.37,3.71c-1.68,1.61-3.41,3.19-5.14,4.75l-2.58,2.33c-.82.74-1.65,1.51-2.4,2.24l.18.32c.58.94,1.23,1.9,1.86,2.86s1.31,1.91,2,2.84c.33.48.66.94,1,1.39l.5.66.24.29.09.11Z"/><path class="cls-17" d="M56.8,27.72a47.5,47.5,0,0,1,1.09,12.51"/><path class="cls-17" d="M60.27,27.58a47,47,0,0,1,1.09,12.51"/><path class="cls-9" d="M67.82,42.46a46.82,46.82,0,0,1-6.66-14.54l6.36,10C67.61,39.36,67.71,40.92,67.82,42.46Z"/><path class="cls-9" d="M52.31,46.32a34.53,34.53,0,0,1,.37,6.1,39.67,39.67,0,0,0,13.05-.49,14.5,14.5,0,0,0-.36-6A98.73,98.73,0,0,0,52.31,46.32Z"/><path class="cls-12" d="M61.92,12.81a4.83,4.83,0,0,0-3.85.23A2.21,2.21,0,0,0,56.64,15a52.27,52.27,0,0,0,.64,5.78l7.3-3.3a3.86,3.86,0,0,0-.32-3A4.74,4.74,0,0,0,61.92,12.81Z"/><path class="cls-12" d="M56.67,17.25a2.6,2.6,0,0,0-.57-1.8c-.72-1.16.07-1.89.63-1.72,0,0-.29-.72.19-1s.73,0,.73,0a5.59,5.59,0,0,1,4.29-1c2,.39,3.47-1,4.2-.45s-.6,1-.6,1,1.2.66,1,1.27-1.28.67-1.28.67,1.14.75.67,1.25-1.91-.1-1.91-.1S58.3,15.48,56.67,17.25Z"/><path class="cls-16" d="M60.47,23.45h0v0L60,24.68a3.12,3.12,0,0,0-.09.74,4.1,4.1,0,0,0,0,.61c.23.4.27,1.25-.69,1.15-1.22-.12-3.28-2-3.3-2.57a15.58,15.58,0,0,0,1.53-5.2l1.22,1.65Z"/><g class="cls-18"><path d="M60.46,23.48,60,24.68a3.16,3.16,0,0,1-1.53-2.1c-.07-.59.25-1.11.49-1.11Z"/></g><path class="cls-16" d="M63.81,21.23c-.1.26-.21.52-.32.77-1,2.21-3.88,2.11-5.45.23h0a3.74,3.74,0,0,1-.39-.54c-1-1.6-.55-2.7-.11-5.25a3.53,3.53,0,0,1,5.56-2.29C65.11,15.59,64.83,18.63,63.81,21.23Z"/><path class="cls-6" d="M61.53,21a.47.47,0,0,1-.56.36.55.55,0,0,1,.37-1A.47.47,0,0,1,61.53,21Z"/><path class="cls-12" d="M59.67,16c.67-.09.21-.83.36-1.24.46-1.34,4.1-.42,4.52,1.63a4,4,0,0,0-1.23-2.52c-1.14-1-3.59-1.39-4.71-.29a4.9,4.9,0,0,0-1.13,3.06.82.82,0,0,0,.19.58c.12.12.33.66.69.8s.53.07.64-.36S59.23,16.09,59.67,16Z"/><path class="cls-16" d="M56.05,17.85a2.48,2.48,0,0,0,.81,1.7c.64.57,1.34.09,1.48-.72s-.06-1.9-.86-2.16a1.1,1.1,0,0,0-1.43,1.18"/><path class="cls-12" d="M61.27,18c-.05.2,0,.39.15.42s.27-.11.32-.3,0-.39-.15-.42-.27.1-.32.3"/><path class="cls-12" d="M63.45,18.49c-.05.2,0,.38.15.41s.27-.1.32-.3,0-.38-.15-.42-.27.11-.32.31"/><path class="cls-12" d="M64.23,17.89a.1.1,0,0,1-.08-.07.53.53,0,0,0-.24-.34.62.62,0,0,0-.43,0,.09.09,0,0,1-.12-.07.1.1,0,0,1,.06-.13.84.84,0,0,1,.58.06.7.7,0,0,1,.35.46.11.11,0,0,1-.07.13Z"/><path class="cls-12" d="M60.85,17.09s0,0-.05,0a.1.1,0,0,1,0-.15.88.88,0,0,1,.55-.3.77.77,0,0,1,.59.22A.11.11,0,0,1,62,17a.12.12,0,0,1-.16,0,.59.59,0,0,0-.43-.17.68.68,0,0,0-.4.22A.12.12,0,0,1,60.85,17.09Z"/><path class="cls-19" d="M62.63,18.14A6.25,6.25,0,0,0,63,19.68c.28.63-.81.39-.81.39Z"/><path class="cls-9" d="M52.05,31.35l-3.79,6.27c0-.92,0-1.81,0-2.65v-.31Z"/><path class="cls-7" d="M70.36,40.74a2.6,2.6,0,0,1-3.31-1,2.39,2.39,0,0,0-.13-.21l-.25-.44a2.53,2.53,0,0,1-.13-.22l-.42-.72-.45-.8-.46-.8-.45-.8-.45-.8,0-.1-.84-1.52c-.59-1.08-1.17-2.16-1.73-3.25S60.56,27.85,60,26.73l2.32-1.52c.81.93,1.59,1.89,2.37,2.85l.25.32,1.78-.93c.44.78.86,1.57,1.27,2.37s.82,1.59,1.22,2.4.79,1.6,1.17,2.42.76,1.62,1.13,2.43l.11.23A2.6,2.6,0,0,1,70.36,40.74Z"/><path class="cls-20" d="M65.67,37.31a1.19,1.19,0,0,1-.09-.15c-.28-.48-.55-1-.82-1.45l.45.8Z"/><path class="cls-16" d="M62.36,25.81c-.06.44-.39,1.14-1,1.12a3.41,3.41,0,0,1-1.18-.26h0a2.82,2.82,0,0,1-1.75-1.06c-.45-.86.25-2.21.25-2.21-.73-.7-1.6-1.89-1-1.62s3,1.93,3.83,1.74,1.07-.86,1.36-.72-.29.78-.61,1.41A5.61,5.61,0,0,1,62.36,25.81Z"/><g class="cls-18"><path d="M59.92,26.68h0c-.06,0-1.49-.7-1.75-1.44a2.6,2.6,0,0,1,.4-1.83,5.72,5.72,0,0,1-1.08-1.18c-.11-.22-.13-.37-.07-.47a.16.16,0,0,1,.13-.09,2.06,2.06,0,0,1,1,.55,8.13,8.13,0,0,0,1.67,1c1.29.57,1.53.23,1.68,0l.06-.09c.17-.24.45-.65.94-.46a.1.1,0,0,1,0,.1.07.07,0,0,1-.1,0c-.35-.14-.55.1-.76.41l-.06.08c-.23.34-.56.63-1.86.06a8.41,8.41,0,0,1-1.7-1,2.12,2.12,0,0,0-.95-.51h0s0,.11.08.33a6.3,6.3,0,0,0,1.09,1.18.06.06,0,0,1,0,.09s-.65,1.09-.42,1.76,1.67,1.35,1.68,1.35a.08.08,0,0,1,0,.1A.08.08,0,0,1,59.92,26.68Z"/></g><path class="cls-9" d="M63.4,26.4,69.72,36S69,32.79,63.4,26.4Z"/><path class="cls-16" d="M48.23,48.3s2.54.78,2.74,1.28-.63.37-.63.37.91.19.88.54-.9.28-.9.28.74.18.69.49-1,.22-1,.22.5.22.33.41a4.2,4.2,0,0,1-2.6-.35c-.59-.42-.21-2.75,0-3.26s-.13-1,.59-1.61l0,1.63Z"/><path class="cls-9" d="M50.34,50h0l-1.56-.4s0,0,0,0a0,0,0,0,1,0,0l1.56.4a0,0,0,0,1,0,.05A0,0,0,0,1,50.34,50Z"/><path class="cls-9" d="M50.27,50.8h0l-1.53-.28a0,0,0,0,1,0-.05s0,0,0,0l1.54.28a0,0,0,1,1,0,.08Z"/><path class="cls-9" d="M49.92,51.52l-1.15-.18s0,0,0-.05,0,0,0,0l1.15.18s0,0,0,0A0,0,0,0,1,49.92,51.52Z"/></g></g></svg>