<svg xmlns="http://www.w3.org/2000/svg" xmlns:xlink="http://www.w3.org/1999/xlink" viewBox="0 0 409.78 399.46"><defs><style>.cls-1{fill:none;}.cls-2{fill:url(#linear-gradient);}.cls-3{fill:url(#linear-gradient-2);}.cls-4{fill:url(#linear-gradient-3);}.cls-5{isolation:isolate;}.cls-6{fill:#f4f7fa;}.cls-7{clip-path:url(#clip-path);}.cls-8{fill:url(#linear-gradient-4);}.cls-29,.cls-9{opacity:0.5;}.cls-20,.cls-29,.cls-31,.cls-35,.cls-36,.cls-9{mix-blend-mode:soft-light;}.cls-10{fill:#beb8f2;}.cls-11{fill:url(#linear-gradient-5);}.cls-12{clip-path:url(#clip-path-2);}.cls-13{fill:#fcfdfe;}.cls-14{fill:url(#linear-gradient-6);}.cls-15{clip-path:url(#clip-path-3);}.cls-16{fill:url(#linear-gradient-7);}.cls-17{fill:url(#linear-gradient-8);}.cls-18{fill:url(#linear-gradient-9);}.cls-19{fill:url(#linear-gradient-10);}.cls-20,.cls-24,.cls-29,.cls-31,.cls-35,.cls-36{fill:#fff;}.cls-20{opacity:0.9;}.cls-21,.cls-31,.cls-40,.cls-45,.cls-53{opacity:0.3;}.cls-21,.cls-25,.cls-40,.cls-45,.cls-53{mix-blend-mode:multiply;}.cls-22{fill:#97a6b7;}.cls-23{fill:url(#linear-gradient-11);}.cls-25{opacity:0.2;}.cls-26{fill:url(#linear-gradient-12);}.cls-27{fill:#d8dee8;}.cls-28{clip-path:url(#clip-path-4);}.cls-30{clip-path:url(#clip-path-5);}.cls-32{clip-path:url(#clip-path-6);}.cls-33{fill:url(#linear-gradient-16);}.cls-34{clip-path:url(#clip-path-7);}.cls-35{opacity:0.74;}.cls-37{fill:url(#linear-gradient-17);}.cls-38{fill:url(#linear-gradient-18);}.cls-39{fill:url(#linear-gradient-19);}.cls-40{fill:url(#linear-gradient-20);}.cls-41{fill:url(#linear-gradient-21);}.cls-42{fill:url(#linear-gradient-22);}.cls-43{fill:url(#linear-gradient-23);}.cls-44{fill:url(#linear-gradient-24);}.cls-45{fill:url(#linear-gradient-25);}.cls-46{fill:url(#linear-gradient-26);}.cls-47{fill:url(#linear-gradient-27);}.cls-48{fill:url(#linear-gradient-28);}.cls-49{fill:url(#linear-gradient-29);}.cls-50{fill:url(#linear-gradient-30);}.cls-51{fill:url(#linear-gradient-31);}.cls-52{fill:url(#linear-gradient-32);}.cls-53{fill:url(#linear-gradient-33);}</style><linearGradient id="linear-gradient" x1="344.16" y1="256.49" x2="341.71" y2="353.77" gradientUnits="userSpaceOnUse"><stop offset="0" stop-color="#e38ddd"/><stop offset="1" stop-color="#9571f6"/></linearGradient><linearGradient id="linear-gradient-2" x1="299.8" y1="341.03" x2="308.7" y2="334.24" gradientUnits="userSpaceOnUse"><stop offset="0" stop-color="#aa80f9"/><stop offset="1" stop-color="#6165d7"/></linearGradient><linearGradient id="linear-gradient-3" x1="307.68" y1="257.42" x2="332.12" y2="371.77" xlink:href="#linear-gradient-2"/><clipPath id="clip-path" transform="translate(0 12.22)"><path class="cls-1" d="M67.58,88.09c12.06-23.56,30-51.55,45.8-23.41S173,66.05,187,25.2c13.68-40,92.63-38.74,71,50.51C245,129,191.63,131.39,165,139S143.84,187.4,108,180c-30.59-6.32-55.58-24.73-71.73-3.86S59.59,103.71,67.58,88.09Z"/></clipPath><linearGradient id="linear-gradient-4" x1="7772.04" y1="5093.44" x2="7666.79" y2="5392.57" gradientTransform="matrix(-0.19, -0.98, -0.98, 0.19, 6731.24, 6696.96)" xlink:href="#linear-gradient"/><linearGradient id="linear-gradient-5" x1="1370.39" y1="5760.51" x2="1481.26" y2="6051.84" gradientTransform="translate(6309.15 525) rotate(107.04)" gradientUnits="userSpaceOnUse"><stop offset="0" stop-color="#ffc444"/><stop offset="1" stop-color="#f36f56"/></linearGradient><clipPath id="clip-path-2" transform="translate(0 12.22)"><path class="cls-1" d="M137.57,121.32,133,160.69s21.46,19.1,32.92,8.41S199.36,173,212,179.22c34.18,17,46-25.67,91.69-7.65,12.14,4.79,33.69,18.34,47.4,11.06,15.62-8.3,8.19-21.81,20.36-26.31,19-7,31.7-25.61,21.37-43.77-10.19-17.93-44.67-14.7-81.41,12.71-28.36,16.52-34.34,14.58-47.88,7C254,127,231.8,106.41,216.07,117s-31,17.38-40.21,7.26C161.86,108.86,137.57,121.32,137.57,121.32Z"/></clipPath><linearGradient id="linear-gradient-6" x1="6477.37" y1="5342.85" x2="6626.63" y2="5588.57" gradientTransform="matrix(-0.19, 0.98, -0.98, -0.19, 6836.1, -5267.78)" gradientUnits="userSpaceOnUse"><stop offset="0" stop-color="#ff9085"/><stop offset="1" stop-color="#fb6fbb"/></linearGradient><clipPath id="clip-path-3" transform="translate(0 12.22)"><path class="cls-1" d="M113.38,173.1c7.58,5.26,21.93,12.93,28.11.75,8.59-16.93,38.51-11.09,48.1-3.93,11.87,8.85,39.91,28.87,53.58,2.91,11.38-21.6,14.58-38,42.87-33.7s48.91-8.25,52.51-35.52c3.79-28.7,43.87-44.45,36.52-70.16C362.26-11.34,293.45,12.32,266,57.74S113.38,173.1,113.38,173.1Z"/></clipPath><linearGradient id="linear-gradient-7" x1="67.4" y1="14.61" x2="146.37" y2="149.31" gradientUnits="userSpaceOnUse"><stop offset="0" stop-color="#444b8c"/><stop offset="1" stop-color="#26264f"/></linearGradient><linearGradient id="linear-gradient-8" x1="157.28" y1="111.4" x2="323.56" y2="627.91" xlink:href="#linear-gradient-7"/><linearGradient id="linear-gradient-9" x1="52.86" y1="223.87" x2="343.14" y2="223.87" gradientUnits="userSpaceOnUse"><stop offset="0.49" stop-color="#ebeff2"/><stop offset="1" stop-color="#fff"/></linearGradient><linearGradient id="linear-gradient-10" x1="377.92" y1="162.98" x2="345.35" y2="223.68" xlink:href="#linear-gradient-7"/><linearGradient id="linear-gradient-11" x1="42.07" y1="653.15" x2="155.11" y2="653.15" gradientTransform="translate(164.63 -445.5) rotate(5.28)" xlink:href="#linear-gradient-6"/><linearGradient id="linear-gradient-12" x1="42.07" y1="653.75" x2="127.88" y2="653.75" gradientTransform="translate(164.63 -445.5) rotate(5.28)" xlink:href="#linear-gradient-6"/><clipPath id="clip-path-4" transform="translate(0 12.22)"><path class="cls-2" d="M318.46,346.86c-2.86.58-9.86-8.78-7.89-16.5,2.16-8.48,13.25-7.42,16.74-16.67,2.85-7.56-3.43-10.93-1.4-21.24a27.33,27.33,0,0,1,12.82-17.93c8.66-4.84,14.43-.28,20.06-5.35,6.61-6,3.33-16.52,5.89-17,3.71-.71,15.88,20.6,8.9,30.85-5.87,8.62-20.18,2-27.42,11.58-6.08,8.08,1.79,15.79-5,25.33-5.56,7.85-13.92,5.84-18.82,15C319,341.16,320.51,346.44,318.46,346.86Z"/></clipPath><clipPath id="clip-path-5" transform="translate(0 12.22)"><path class="cls-3" d="M318.53,353.51a27.23,27.23,0,0,1-7-3.69c-2.82-2.06-5.52-4-6.55-7.32-1.19-3.82,1.18-5,0-8.51-1.36-4-5-3.56-6.35-7.68-1-2.8-.14-5.46.58-7.81.87-2.81,2.83-6.86,4.12-6.6,1.53.31-.52,6.15,2.95,10.17,2.62,3.05,5.68,1.88,8.27,5.44a9.26,9.26,0,0,1,1.89,6.38c-.53,3.93-3.66,5-4.41,8.23C311.49,344.45,312.36,348,318.53,353.51Z"/></clipPath><clipPath id="clip-path-6" transform="translate(0 12.22)"><path class="cls-4" d="M313.92,258.3c-1.83.85,1.33,5.74,0,13.76C311.73,284.81,301.12,288,302,297.91a22.43,22.43,0,0,0,2.81,9c.77,1.21,1.35,1.78,4,5.37.25.33,2.63,3.56,3.21,4.45,3.93,6-4.08,14.88-1.65,23.53,1.68,6,6.1,10,9.72,12.58-6.79-10.67-6.71-17.52-5.22-21.88,2.08-6.06,6.79-7.05,9.3-14.67,1.76-5.32.12-6.84.16-16.62.07-15.13,4-16.77,2-25.07C324,264.9,316.2,257.24,313.92,258.3Z"/></clipPath><linearGradient id="linear-gradient-16" x1="3760" y1="1504.1" x2="3739.86" y2="1550.71" gradientTransform="matrix(0.83, 0.84, -0.71, 0.7, -1670.96, -3913.22)" xlink:href="#linear-gradient-2"/><clipPath id="clip-path-7" transform="translate(0 12.22)"><path class="cls-1" d="M320.89,354a18.41,18.41,0,0,1-7.87-7.43c-3.76-7.25-.07-15.7,4.89-19.73,6.19-5,11.17-.59,17-5.32,6.64-5.38,2.33-12.83,9.23-18.4,4.68-3.79,10.79-3.7,16.2-3.62,6.48.1,16.5,1.79,17.23,4.7.86,3.46-12.82,2.72-17.51,12.66-3.56,7.52,1.74,13.33-2.86,21.11-.62,1.06-4.1,6.93-10.94,8-8.94,1.42-15.31-6.67-20.77-4.3C323.28,342.65,320.91,345.46,320.89,354Z"/></clipPath><linearGradient id="linear-gradient-17" x1="111.7" y1="332.66" x2="109.99" y2="366.32" gradientTransform="matrix(1, 0, 0, 1, 0, 0)" xlink:href="#linear-gradient-6"/><linearGradient id="linear-gradient-18" x1="111.7" y1="332.66" x2="109.99" y2="366.32" xlink:href="#linear-gradient-2"/><linearGradient id="linear-gradient-19" x1="107.4" y1="350.64" x2="207.04" y2="350.64" xlink:href="#linear-gradient-2"/><linearGradient id="linear-gradient-20" x1="107.4" y1="350.87" x2="207.04" y2="350.87" xlink:href="#linear-gradient-2"/><linearGradient id="linear-gradient-21" x1="135.62" y1="389.41" x2="116.44" y2="365.55" gradientUnits="userSpaceOnUse"><stop offset="0" stop-color="#311944"/><stop offset="1" stop-color="#6b3976"/></linearGradient><linearGradient id="linear-gradient-22" x1="123.84" y1="383.75" x2="97.42" y2="350.5" gradientTransform="matrix(1, 0, 0, 1, 0, 0)" xlink:href="#linear-gradient-5"/><linearGradient id="linear-gradient-23" x1="66.96" y1="349.53" x2="45" y2="395.19" xlink:href="#linear-gradient-2"/><linearGradient id="linear-gradient-24" x1="59.94" y1="401.14" x2="106.17" y2="301.76" gradientUnits="userSpaceOnUse"><stop offset="0" stop-color="#f36f56"/><stop offset="1" stop-color="#ffc444"/></linearGradient><linearGradient id="linear-gradient-25" x1="99.37" y1="268.68" x2="102.98" y2="327.1" xlink:href="#linear-gradient-24"/><linearGradient id="linear-gradient-26" x1="67.96" y1="357.3" x2="136.13" y2="357.3" xlink:href="#linear-gradient-2"/><linearGradient id="linear-gradient-27" x1="31.58" y1="393.15" x2="79.14" y2="290.89" xlink:href="#linear-gradient-24"/><linearGradient id="linear-gradient-28" x1="3532.45" y1="1225.47" x2="3522.51" y2="1200.22" gradientTransform="matrix(-0.79, -0.61, -0.61, 0.79, 3653.62, 1429.61)" xlink:href="#linear-gradient-21"/><linearGradient id="linear-gradient-29" x1="3529.41" y1="1226.68" x2="3519.46" y2="1201.4" gradientTransform="matrix(-0.79, -0.61, -0.61, 0.79, 3653.62, 1429.61)" xlink:href="#linear-gradient-21"/><linearGradient id="linear-gradient-30" x1="119.29" y1="255.74" x2="121.75" y2="255.74" xlink:href="#linear-gradient-24"/><linearGradient id="linear-gradient-31" x1="86.38" y1="328.07" x2="171.31" y2="328.07" xlink:href="#linear-gradient-7"/><linearGradient id="linear-gradient-32" x1="87.98" y1="328.87" x2="171.38" y2="328.87" xlink:href="#linear-gradient-7"/><linearGradient id="linear-gradient-33" x1="87.98" y1="329.84" x2="165.08" y2="329.84" xlink:href="#linear-gradient-7"/></defs><title>Asset 1denied</title><g class="cls-5"><g id="Layer_2" data-name="Layer 2"><g id="Illustration"><g id="Order_canceled" data-name="Order canceled"><path class="cls-6" d="M199.66.14c-99.14-3-185,71-198,168-14.18,106.13,63.89,201.63,160,216.92,119.5,19,235.4-91,225-210.42C378.78,84.72,300.44,3.2,199.66.14Z" transform="translate(0 12.22)"/><g class="cls-7"><path class="cls-8" d="M187,25.2C173,66.05,134,93,113.38,68.14c-18.18-22-33.74-3.61-45.8,20-7.13,14-18.44,46.79-51.7,40.41a5.06,5.06,0,0,1-.18,1.7c-.9,21.25-2.57,42.46-3.67,63.7,9.33-2.51,17.29-8.74,24.26-17.75C52.44,155.28,77.43,173.69,108,180c35.82,7.39,30.26-33.4,56.93-41S245,129,258,75.71C279.61-13.54,200.66-14.78,187,25.2Z" transform="translate(0 12.22)"/><g class="cls-9"><path class="cls-10" d="M234.25-12.22C234.14,75,159.08,117.08,96.13,137c-28.83,9.13-57.81,14.57-81.75,17.81l-.06,1.13c24-3.24,53.15-8.7,82.13-17.87,40.26-12.73,72.35-30,95.38-51.41,28.84-26.77,43.49-60,43.54-98.87Z" transform="translate(0 12.22)"/><path class="cls-10" d="M179.3,97.32l-.07-1.12C216.29,93.7,265,70,265.52,69.72l.49,1C265.52,71,216.58,94.8,179.3,97.32Z" transform="translate(0 12.22)"/><path class="cls-10" d="M198,79c15.84-41.33-1.86-73.66-2-74l1-.55c.18.33,18.14,33.09,2.11,74.93Z" transform="translate(0 12.22)"/><path class="cls-10" d="M50.69,148.69C100,126.44,99.05,53.72,99,53l1.1-.18c.14.69.8,74.43-48.93,96.88Z" transform="translate(0 12.22)"/><path class="cls-10" d="M72.65,144.79l0-1.11c34.51.47,64.3,32,64.59,32.36l-.81.76C136.15,176.48,106.68,145.26,72.65,144.79Z" transform="translate(0 12.22)"/><path class="cls-10" d="M30.78,184.76a193,193,0,0,0-17.36-14.52l-.08,1.32a197.1,197.1,0,0,1,16.69,14,25.43,25.43,0,0,0,2.29,2l.57-1C32.7,186.52,31.81,185.71,30.78,184.76Z" transform="translate(0 12.22)"/></g></g><path class="cls-11" d="M175.86,124.25c-8.05-8.85-19.62-8-27.9-6.13a12.09,12.09,0,0,1-1.55,2.59c-5.79,9-6.35,14-10.67,23.79-.93,2.1-1.78,9.09-1.94,12l-.23,5.37s20.88,18,32.34,7.27S199.36,173,212,179.22c7.73,3.85,12.5,3.13,15.57,4.08,32.49,10.13,38.29,23.27,50.88,20.08,13.9-3.53,10.81-20.55,25.73-25.19,16.84-5.23,32.08,12.95,46.91,4.44a22.23,22.23,0,0,0,7.47-6.16c5.82-7.71,3.42-16.65,12.89-20.15,19-7,31.7-25.61,21.37-43.77-10.19-17.93-44.67-14.7-81.41,12.71-28.36,16.52-34.34,14.58-47.88,7C254,127,231.8,106.41,216.07,117S185.05,134.37,175.86,124.25Z" transform="translate(0 12.22)"/><g class="cls-12"><g class="cls-9"><path class="cls-13" d="M137.27,139.14l-.18.76c4.21,1,8.47,2,12.66,3a422.69,422.69,0,0,0,90.86,10.27,345,345,0,0,0,72-7.45,296.35,296.35,0,0,0,52.78-16.46,244.76,244.76,0,0,0,32.48-16.48c1.73-1,3.44-2.23,5.1-3.37,2.21-1.51,4.5-3.08,6.83-4.37l-.32-.69c-2.36,1.3-4.66,2.88-6.89,4.41-1.65,1.13-3.36,2.3-5.07,3.34a245.07,245.07,0,0,1-32.38,16.43,296,296,0,0,1-52.65,16.42,343.68,343.68,0,0,1-71.84,7.43,422.08,422.08,0,0,1-90.72-10.25C145.73,141.18,141.47,140.18,137.27,139.14Z" transform="translate(0 12.22)"/><path class="cls-13" d="M284.34,149.68l0,.78c31.26-3,75.68,28.09,76.12,28.4l.41-.66C360.47,177.89,315.85,146.66,284.34,149.68Z" transform="translate(0 12.22)"/><path class="cls-13" d="M196.42,149.83l0,.78c21.4.63,50-32,50.27-32.34l-.53-.52C245.84,118.07,217.48,150.45,196.42,149.83Z" transform="translate(0 12.22)"/><path class="cls-13" d="M184.33,148.34l-.16.77c13.61,3.06,30.46,15.1,47.43,33.9.85,1,.85,1,1,1l.17-.76-.08.38.21-.32-.76-.83C215.06,163.55,198.09,151.43,184.33,148.34Z" transform="translate(0 12.22)"/><path class="cls-13" d="M145,140.93l0,.78c15.38-1.4,28.67-21.76,28.8-22l-.6-.43C173.09,119.51,160,139.56,145,140.93Z" transform="translate(0 12.22)"/><path class="cls-13" d="M136.81,140.23c10.26,7.24,18.83,17.94,26.22,32.7l.65-.39c-7.45-14.87-16.1-25.66-26.46-33Z" transform="translate(0 12.22)"/><path class="cls-13" d="M355.31,132.43l.09.78c17.32-2.7,36-1.24,42.12-.76,1.49.11,2,.15,2.19.13l0-.78c-.14,0-1-.05-2.07-.13C391.44,131.18,372.71,129.72,355.31,132.43Z" transform="translate(0 12.22)"/><path class="cls-13" d="M327.65,141.29l.29.71c15-7.55,26.64-40.7,27.13-42.11l-.68-.26C354.27,100,342.32,133.89,327.65,141.29Z" transform="translate(0 12.22)"/></g></g><path class="cls-14" d="M375.07,33.45C362.26-11.34,293.45,12.32,266,57.74c-8,13.18-14.57,19.85-20.47,22.55A139.91,139.91,0,0,0,207.29,102c-23.18,18.66-27.45,34.94-49.19,46.94a83.74,83.74,0,0,1-36.42,10,23.73,23.73,0,0,1-.16,6.22l-1.83,11.49c7.9,4.95,16.27,8.14,21.8-2.76,8.59-16.93,38.51-11.09,48.1-3.93,11.87,8.85,39.91,28.87,53.58,2.91,11.38-21.6,14.58-38,42.87-33.7s48.91-8.25,52.51-35.52C342.34,74.91,382.42,59.16,375.07,33.45Z" transform="translate(0 12.22)"/><g class="cls-15"><g class="cls-9"><path class="cls-13" d="M258.38,110.62a308,308,0,0,1-68.46,24.44c-1.58.83-3.18,1.64-4.78,2.43a309,309,0,0,0,75.79-26.64C260.08,110.76,259.23,110.68,258.38,110.62Z" transform="translate(0 12.22)"/><path class="cls-13" d="M372.39,14.84a311.71,311.71,0,0,1-98.63,87.62c.27.27.54.53.8.8l.18.18a313,313,0,0,0,98.67-87.78Z" transform="translate(0 12.22)"/><path class="cls-13" d="M183.82,138.14l-1.92.91c35,8.53,56,45.77,56.26,46.15l1.11-.7C239.06,184.12,218.36,147.53,183.82,138.14Z" transform="translate(0 12.22)"/><path class="cls-13" d="M199.94,63.06c.45-1.58.69-2.49.71-2.57l-1.25-.35c0,.09-.28,1.09-.77,2.8Z" transform="translate(0 12.22)"/><path class="cls-13" d="M276.06,104.83c.36.4.76.84,1.18,1.33,27.22-.37,57.44,21.35,57.78,21.6l.73-1.13C335.41,126.38,304,103.82,276.06,104.83Z" transform="translate(0 12.22)"/><path class="cls-13" d="M318.44,72l.94.93C342.54,46.51,341.87-2,341.86-2.47l-1.29,0C340.58-1.95,341.24,46,318.44,72Z" transform="translate(0 12.22)"/></g></g><path class="cls-16" d="M349.76,329,29.66,357.86c-4.78.39-11.64-5.93-11.64-10.72V104.78a8.22,8.22,0,0,1,8.09-8.21L349,92.11c4.58-.07,13.23,3.31,13.23,7.88l-4.91,220.8A8.21,8.21,0,0,1,349.76,329Z" transform="translate(0 12.22)"/><path class="cls-17" d="M356.27,331.21,33.4,357.56a8.22,8.22,0,0,1-8.88-8.18V107a8.22,8.22,0,0,1,8.09-8.21l322.88-4.46a8.2,8.2,0,0,1,8.31,8.2V323A8.21,8.21,0,0,1,356.27,331.21Z" transform="translate(0 12.22)"/><path class="cls-18" d="M61.92,347.72,335.4,325.94a8.4,8.4,0,0,0,7.74-8.37V108.39a8.4,8.4,0,0,0-8.53-8.4l-273.48,4.2a8.4,8.4,0,0,0-8.27,8.4V339.35A8.4,8.4,0,0,0,61.92,347.72Z" transform="translate(0 12.22)"/><path class="cls-19" d="M354.56,220h0a2.86,2.86,0,0,1-2.86-2.86v-21.2a2.86,2.86,0,0,1,2.86-2.86h0a2.86,2.86,0,0,1,2.86,2.86v21.2A2.86,2.86,0,0,1,354.56,220Z" transform="translate(0 12.22)"/><path class="cls-20" d="M294.85,279.34C270,257.61,250,266.11,223.63,244c-32.7-27.4-16.42-52.67-45.21-76.8-36-30.17-79.5-5.7-106.52-35.92-7.07-7.91-11-17.32-13.07-26.76a8.38,8.38,0,0,0-6,8V339.35a8.4,8.4,0,0,0,9.06,8.37L323.8,326.87C319,310.62,310.49,293,294.85,279.34Z" transform="translate(0 12.22)"/><g class="cls-21"><path class="cls-22" d="M305,210.58l-212.75,8a6,6,0,0,1-6.54-5.83V198.53a6.52,6.52,0,0,1,6.51-6.23l211.94-6.11a5.63,5.63,0,0,1,5.8,5.42l.46,13.15A5.62,5.62,0,0,1,305,210.58Z" transform="translate(0 12.22)"/><path class="cls-22" d="M100.84,223.63l19.29,70.54a10,10,0,0,0,10.51,7.09l143.29-9.47a10.15,10.15,0,0,0,9.18-8l14.65-67.95Zm54.66,64.46a5.6,5.6,0,0,1-5.31,5.48l-5.13.33a5,5,0,0,1-5.44-4.82L139.16,234a5.43,5.43,0,0,1,5.31-5.29l5.07-.22a5,5,0,0,1,5.37,4.83Zm28.26-1.76a5.51,5.51,0,0,1-5.18,5.43l-5,.32a4.91,4.91,0,0,1-5.37-4.78l-.69-54.58a5.32,5.32,0,0,1,5.18-5.24l5-.21a5,5,0,0,1,5.29,4.78Zm27.72-1.72a5.39,5.39,0,0,1-5.06,5.37l-4.94.31a4.85,4.85,0,0,1-5.28-4.73l-.93-54.05a5.24,5.24,0,0,1,5.07-5.19l4.88-.2a4.9,4.9,0,0,1,5.21,4.74Zm27.19-1.69a5.28,5.28,0,0,1-4.94,5.31l-4.84.31a4.81,4.81,0,0,1-5.21-4.69l-1.14-53.52a5.12,5.12,0,0,1,4.94-5.14l4.8-.2a4.85,4.85,0,0,1,5.13,4.69Zm26.69-1.66a5.19,5.19,0,0,1-4.84,5.26l-4.74.3a4.76,4.76,0,0,1-5.13-4.65l-1.36-53a5,5,0,0,1,4.83-5.09l4.71-.2a4.82,4.82,0,0,1,5.06,4.65Z" transform="translate(0 12.22)"/><path class="cls-22" d="M187.56,122.62c-1.07-1.14-3.24-1-4.85.38l-67,56.24c-1.72,1.44-2.21,3.56-1.09,4.72s3.42.94,5.14-.5l66.83-56.33C188.2,125.78,188.63,123.76,187.56,122.62Z" transform="translate(0 12.22)"/><path class="cls-22" d="M214,122.36c1-1.14,3.18-1,4.81.35l65,52.91c1.59,1.3,2.1,3.28,1.13,4.43s-3,1-4.64-.25l-65.22-53C213.47,125.51,213,123.5,214,122.36Z" transform="translate(0 12.22)"/></g><path class="cls-23" d="M259.25,215.54c-2.88,31.12-30.45,55.7-61.66,54.9S143.14,243.61,146,212.3s30.71-55.89,62-54.89S262.13,184.42,259.25,215.54Z" transform="translate(0 12.22)"/><path class="cls-24" d="M203.38,249.68a35.77,35.77,0,1,1,35.76-35.76A35.81,35.81,0,0,1,203.38,249.68Zm0-58.37A22.61,22.61,0,1,0,226,213.92,22.63,22.63,0,0,0,203.38,191.31Z" transform="translate(0 12.22)"/><path class="cls-24" d="M186.83,238.63a6.58,6.58,0,0,1-4.66-11.22l35.7-35.91a6.58,6.58,0,1,1,9.33,9.27l-35.7,35.92A6.59,6.59,0,0,1,186.83,238.63Z" transform="translate(0 12.22)"/><g class="cls-25"><path class="cls-26" d="M198,255.45c-4.1-7.25,4.2-13.23,4.53-27.7.52-22-18.11-29.94-15.61-48.48.69-5.16,3.25-12.87,12.86-21.53-27.78,3.12-51.08,26-53.72,54.56-2.89,31.31,20.23,57.34,51.56,58.14a59.07,59.07,0,0,0,29.91-7.34C215.81,263.89,202.31,263.13,198,255.45Z" transform="translate(0 12.22)"/></g><path class="cls-27" d="M306.48,341.91c-31.32-.33-33,2-33.19,3-1.08,4.83,19.93,16.73,42.24,18.71,13.2,1.17,24.09-1.44,45.87-6.64,14.52-3.47,21.78-5.21,21.73-7.24C383,344,329.81,342.16,306.48,341.91Z" transform="translate(0 12.22)"/><path class="cls-2" d="M318.46,346.86c-2.86.58-9.86-8.78-7.89-16.5,2.16-8.48,13.25-7.42,16.74-16.67,2.85-7.56-3.43-10.93-1.4-21.24a27.33,27.33,0,0,1,12.82-17.93c8.66-4.84,14.43-.28,20.06-5.35,6.61-6,3.33-16.52,5.89-17,3.71-.71,15.88,20.6,8.9,30.85-5.87,8.62-20.18,2-27.42,11.58-6.08,8.08,1.79,15.79-5,25.33-5.56,7.85-13.92,5.84-18.82,15C319,341.16,320.51,346.44,318.46,346.86Z" transform="translate(0 12.22)"/><g class="cls-28"><path class="cls-29" d="M319.79,335.61l-.17-.18c8.32-7.8,13.51-16.43,15.43-25.66a51.68,51.68,0,0,0,.79-13.26c-.17-4.94-.31-8.84,2.78-11.71s7-2.71,11.15-2.56c4.55.15,9.26.31,13.24-3.4s4.75-9,5.09-11.31c1.3-8.65-2.68-15.55-4.45-18.11l.2-.14c1.79,2.59,5.81,9.55,4.5,18.28-.35,2.31-1.16,7.7-5.18,11.45s-8.81,3.63-13.41,3.47c-4.11-.14-8-.28-11,2.49s-2.88,6.47-2.7,11.54a52.63,52.63,0,0,1-.8,13.31C333.36,319.1,328.15,327.78,319.79,335.61Z" transform="translate(0 12.22)"/><path class="cls-29" d="M362.87,281.14a2.75,2.75,0,0,1-1.54-1.08c-.74-1.15-.05-2.54.76-4.14a10.88,10.88,0,0,0,1.6-6c-.31-3.23-2.84-6.34-7.53-9.26l.13-.21c4.76,3,7.33,6.14,7.64,9.44A11.16,11.16,0,0,1,362.3,276c-.8,1.6-1.43,2.86-.77,3.9,1.29,2,6.11,1.16,8.42.75a32.47,32.47,0,0,0,15-7.09l.15.19A32.69,32.69,0,0,1,370,280.92C368.2,281.24,364.94,281.81,362.87,281.14Z" transform="translate(0 12.22)"/><path class="cls-29" d="M335.86,294.47l-.05-.07a9.62,9.62,0,0,1-2.32-5.23c-.35-3.66,1.88-6.72,3.85-9.43,1.82-2.49,3.39-4.65,2.64-6.74-.42-1.18-1.55-2.14-3.35-2.87l.09-.22c1.87.75,3,1.76,3.49,3,.79,2.21-.81,4.42-2.67,7s-4.14,5.69-3.8,9.26a9.38,9.38,0,0,0,2.2,5,20.2,20.2,0,0,1,7.26-1.45c7.66-.08,13.23,4.41,15.26,6.35l-.17.17c-2-1.91-7.51-6.35-15.09-6.27a19.71,19.71,0,0,0-7.25,1.46Z" transform="translate(0 12.22)"/><path class="cls-29" d="M332.36,318.71l0,0c-.21-.21-21-20.86-22-21.51l.13-.21c.95.66,20.63,20.18,22,21.5l32.23-4,0,.24Z" transform="translate(0 12.22)"/></g><path class="cls-3" d="M318.53,353.51a27.23,27.23,0,0,1-7-3.69c-2.82-2.06-5.52-4-6.55-7.32-1.19-3.82,1.18-5,0-8.51-1.36-4-5-3.56-6.35-7.68-1-2.8-.14-5.46.58-7.81.87-2.81,2.83-6.86,4.12-6.6,1.53.31-.52,6.15,2.95,10.17,2.62,3.05,5.68,1.88,8.27,5.44a9.26,9.26,0,0,1,1.89,6.38c-.53,3.93-3.66,5-4.41,8.23C311.49,344.45,312.36,348,318.53,353.51Z" transform="translate(0 12.22)"/><g class="cls-30"><path class="cls-31" d="M319.4,354.9c-.56-.54-1.31-1.18-2.1-1.85-3.47-3-8.22-7-7.7-10.86.28-2,.62-3.59.9-4.85.54-2.44.86-3.92.11-5.83-.89-2.26-2.51-3.22-4.22-4.24a10.11,10.11,0,0,1-4.2-3.83c-1.73-3.19-1.24-7.67,1.46-13.32l.22.1c-2.66,5.58-3.16,10-1.47,13.1a9.86,9.86,0,0,0,4.11,3.74c1.68,1,3.41,2,4.33,4.36.78,2,.45,3.48-.1,6-.28,1.26-.62,2.83-.89,4.84-.51,3.7,4.18,7.71,7.61,10.63.79.68,1.54,1.32,2.11,1.86Z" transform="translate(0 12.22)"/><path class="cls-31" d="M303.7,326.91a9,9,0,0,1-3.27-1.86c-3.86-3.46-3-8.82-2.94-9l.25,0c0,.22-.9,5.45,2.85,8.81a9.21,9.21,0,0,0,5.54,2.27,6,6,0,0,1-1.68-4.73,5.82,5.82,0,0,1,2-3.67l.16.19a5.51,5.51,0,0,0-1.94,3.51,5.81,5.81,0,0,0,1.83,4.75l.25.22h-.34A9.72,9.72,0,0,1,303.7,326.91Z" transform="translate(0 12.22)"/><path class="cls-31" d="M310.79,336.43l-.05-.15a8.53,8.53,0,0,0-2.91-4.42c-3.95-3.09-9-1.1-9.26-1l-.09-.23c.22-.09,5.44-2.13,9.5,1a8.8,8.8,0,0,1,2.95,4.4,7.69,7.69,0,0,0,3.51-4.68,7.92,7.92,0,0,0-1.89-6.94l.18-.17a8.2,8.2,0,0,1,1.95,7.16,8,8,0,0,1-3.76,4.92Z" transform="translate(0 12.22)"/><path class="cls-31" d="M309.67,344l-.07-.19a11.08,11.08,0,0,0-7.49-6.93l.07-.24a11.44,11.44,0,0,1,4.91,2.83,11.25,11.25,0,0,1,2.67,4.08l7.31-7.49.18.17Z" transform="translate(0 12.22)"/></g><path class="cls-4" d="M313.92,258.3c-1.83.85,1.33,5.74,0,13.76C311.73,284.81,301.12,288,302,297.91a22.43,22.43,0,0,0,2.81,9c.77,1.21,1.35,1.78,4,5.37.25.33,2.63,3.56,3.21,4.45,3.93,6-4.08,14.88-1.65,23.53,1.68,6,6.1,10,9.72,12.58-6.79-10.67-6.71-17.52-5.22-21.88,2.08-6.06,6.79-7.05,9.3-14.67,1.76-5.32.12-6.84.16-16.62.07-15.13,4-16.77,2-25.07C324,264.9,316.2,257.24,313.92,258.3Z" transform="translate(0 12.22)"/><g class="cls-32"><path class="cls-29" d="M313.17,344.64a27.16,27.16,0,0,1-.47-14,22.1,22.1,0,0,1,3.3-7.24,16.61,16.61,0,0,0,2.83-6.43c.76-4.07-.36-6.42-1.67-9.14a21.51,21.51,0,0,1-2.56-9.06c-.28-5.63,1.63-9.15,3.48-12.55,1.73-3.18,3.37-6.19,3.32-10.8-.07-6.35-3.47-12.82-10.11-19.23l.17-.18c6.69,6.46,10.12,13,10.18,19.41.05,4.67-1.67,7.85-3.35,10.92-1.83,3.37-3.72,6.86-3.45,12.42a21.36,21.36,0,0,0,2.54,9c1.33,2.76,2.47,5.14,1.69,9.29a16.81,16.81,0,0,1-2.86,6.51,22,22,0,0,0-3.27,7.17,26.77,26.77,0,0,0,.47,13.91Z" transform="translate(0 12.22)"/><path class="cls-29" d="M319.85,283v-.2a12.66,12.66,0,0,0-11-13l0-.24a12.91,12.91,0,0,1,11.2,13,13.08,13.08,0,0,0,4.83-4.06,13.71,13.71,0,0,0,2.2-10.06l.24,0a13.89,13.89,0,0,1-2.24,10.24,13.18,13.18,0,0,1-5.11,4.22Z" transform="translate(0 12.22)"/><path class="cls-29" d="M316.61,306.33l-.12-.05a9.29,9.29,0,0,1-5.92-8.71,17.5,17.5,0,0,0-.55-3.33c-.87-3-3.08-5.71-6.54-8.07l.14-.2c3.51,2.39,5.74,5.15,6.63,8.2a17.59,17.59,0,0,1,.57,3.37,9,9,0,0,0,5.64,8.46A37.87,37.87,0,0,1,326.62,290l.17.18a37.69,37.69,0,0,0-10.14,16.07Z" transform="translate(0 12.22)"/><path class="cls-29" d="M318.1,319.87l0-.21a10.33,10.33,0,0,0-4.36-6.45,10.64,10.64,0,0,0-9.32-.78l-.09-.22a10.88,10.88,0,0,1,9.54.79,10.57,10.57,0,0,1,4.42,6.4,24.24,24.24,0,0,0,4.27-5.16A24.93,24.93,0,0,0,326,303.85l.24,0a25.11,25.11,0,0,1-3.55,10.5,24.61,24.61,0,0,1-4.47,5.36Z" transform="translate(0 12.22)"/></g><path class="cls-33" d="M320.89,354a18.41,18.41,0,0,1-7.87-7.43c-3.76-7.25-.07-15.7,4.89-19.73,6.19-5,11.17-.59,17-5.32,6.64-5.38,2.33-12.83,9.23-18.4,4.68-3.79,10.79-3.7,16.2-3.62,6.48.1,16.5,1.79,17.23,4.7.86,3.46-12.82,2.72-17.51,12.66-3.56,7.52,1.74,13.33-2.86,21.11-.62,1.06-4.1,6.93-10.94,8-8.94,1.42-15.31-6.67-20.77-4.3C323.28,342.65,320.91,345.46,320.89,354Z" transform="translate(0 12.22)"/><g class="cls-34"><path class="cls-35" d="M320.15,356.52c-4.19-9.28-4.83-16-1.92-19.87,2.32-3.11,5.91-3.36,10.07-3.66s9-.62,13.31-4.17c4-3.24,4.94-6.94,6-10.86.94-3.56,1.92-7.23,5.33-10.48,5.46-5.2,14.62-6.73,27.24-4.57l0,.24c-12.54-2.15-21.63-.63-27,4.51-3.36,3.2-4.33,6.84-5.26,10.36-1,3.78-2,7.7-6.05,11-4.4,3.59-9.21,3.93-13.46,4.23-4.09.29-7.63.53-9.88,3.56-2.86,3.82-2.2,10.42,1.94,19.62Z" transform="translate(0 12.22)"/><path class="cls-35" d="M344.31,326.88a1.88,1.88,0,0,1-.3-.12c-1.68-.87-1.64-3.95-1.61-6.93a26.11,26.11,0,0,1,2.14-10.1A28.4,28.4,0,0,1,354,298.26l.14.2a28.12,28.12,0,0,0-9.36,11.37,26,26,0,0,0-2.12,10c0,2.91-.06,5.91,1.49,6.71,2.43,1.27,7.46-3.57,9.35-5.39l.15-.15a26.79,26.79,0,0,0,2.86-3.3,12.16,12.16,0,0,1,3.63-3.58c2.55-1.52,5.79-2,9.63-1.29l0,.24c-3.78-.66-7-.23-9.46,1.26a12.2,12.2,0,0,0-3.57,3.51,26.33,26.33,0,0,1-2.88,3.34l-.15.14C351.8,323.11,347,327.75,344.31,326.88Z" transform="translate(0 12.22)"/><path class="cls-35" d="M340.05,339.79c-2.64-.85-5.74-3.12-9.26-6.79l-.1-.12.13-.07a14.35,14.35,0,0,0,5.15-5c1.39-2.36,1.61-4.5,1.92-7.45l0-.25c.91-8.78,1.37-13.19,2.13-15,1.48-3.63,4.54-6.71,9.09-9.15l.12.21c-4.5,2.42-7.52,5.46-9,9-.75,1.83-1.21,6.22-2.12,15l0,.24c-.32,3-.54,5.15-2,7.55a14.46,14.46,0,0,1-5.1,5c5.28,5.48,9.56,7.76,12.74,6.77,1.77-.55,2.74-1.94,3.87-3.55a15.29,15.29,0,0,1,4.78-4.9c3.08-1.86,7-2.42,11.54-1.66l0,.24c-4.52-.75-8.35-.2-11.38,1.63a15.23,15.23,0,0,0-4.7,4.83c-1.15,1.65-2.15,3.07-4,3.65A6.3,6.3,0,0,1,340.05,339.79Z" transform="translate(0 12.22)"/><path class="cls-36" d="M336.2,348.59a21.2,21.2,0,0,1-9.71-6.62c-.2-.26-.39-.54-.59-.82-1-1.5-2.22-3.2-4.32-3.75a6.4,6.4,0,0,0-3.74.24l-.16.05v-.17a7,7,0,0,1,1.1-4,7.13,7.13,0,0,1,3.61-2.46c1.27-.5,2.36-.94,2.75-2.12a7,7,0,0,0-.81-5.68l.2-.14a7.2,7.2,0,0,1,.84,5.9c-.42,1.28-1.62,1.76-2.89,2.27a6.92,6.92,0,0,0-3.49,2.37,6.6,6.6,0,0,0-1.06,3.73,6.51,6.51,0,0,1,3.71-.19c2.2.58,3.4,2.32,4.46,3.85l.58.81a21,21,0,0,0,10.86,6.89c6.74,1.69,13.48-3.28,16.06-5.49l.16.18c-2.61,2.24-9.42,7.27-16.28,5.55C337,348.84,336.61,348.72,336.2,348.59Z" transform="translate(0 12.22)"/></g><polygon class="cls-37" points="109.9 358.5 189.43 338.61 193.41 357.93 120.6 391.53 62.95 377.29 28.18 343.15 109.9 358.5"/><polygon class="cls-38" points="109.9 358.5 189.43 338.61 193.41 357.93 120.6 391.53 62.95 377.29 28.18 343.15 109.9 358.5"/><path class="cls-39" d="M107.4,373a216.1,216.1,0,0,0,35.4-23.63c15.6-12.84,22.75-22.52,38.53-26.35,2.82-.68,18.89-4.58,24.08,2.56,5.74,7.9-5.42,24.42-6.78,26.43-20.16,29.85-71.51,28.46-87.62,27.49Z" transform="translate(0 12.22)"/><path class="cls-40" d="M205.41,325.61c-1.52-2.09-4-3.21-6.74-3.77a12.81,12.81,0,0,1-.15,8.81c-3.15,7.16-12.48,5-19,13.36s-2,16.2-7.67,19.6c-6.52,3.9-14.6-5.21-21.59-.85-4.75,3-3.27,8.58-8.81,11.64-3.82,2.12-7.57,1.12-11.93.57a61.72,61.72,0,0,0-20.43,1c.66,1.17,1.31,2.34,2,3.52,16.11,1,67.46,2.36,87.62-27.49C200,350,211.15,333.51,205.41,325.61Z" transform="translate(0 12.22)"/><path class="cls-41" d="M119.35,377.49a8.2,8.2,0,0,1,7.1-.67c4.2,1.42,10.88,2.56,10.87,4.62s-6.69,3.34-11.31,2.49C121.6,383.13,118.13,379.29,119.35,377.49Z" transform="translate(0 12.22)"/><path class="cls-42" d="M115.11,374l7.73,2.49s1.26,2.09-.44,3.42-7.59-1.48-7.59-1.48Z" transform="translate(0 12.22)"/><path class="cls-43" d="M7.6,338.32c-2.29,13.3,26.41,27.68,33,31,13.39,6.71,38.58,16.18,76,12.56l1.5-8.95a176.81,176.81,0,0,1-20.76-8.62c-14.49-7.13-20-12.22-40.11-24.38-22.26-13.46-28.74-15.18-35.38-13.52C16.13,327.81,8.66,332.14,7.6,338.32Z" transform="translate(0 12.22)"/><path class="cls-44" d="M37.5,313c-4.85-17.55,3.16-41.22,20-52.63,13.77-9.32,29.91-8.72,35-8.53,5.51.21,4.94.93,22.29,4.14,24.09,4.45,26.31,3.37,33.32,6.73,13.18,6.31,19.57,17.79,20.77,20,6.12,11.43,11.1,32.67-.53,43.05-6.61,5.91-15.88,5.88-21.09,5.33-.36-2.34-.71-4.69-1.07-7a21.49,21.49,0,0,0,8.1-14.71c.89-10.18-6.23-16.75-7-17.47a69.25,69.25,0,0,0-5.39,49.91,82.72,82.72,0,0,1-30.62,9.76c-10.34,1.14-23.14-1.05-31.33-7.45-11.54-9-12.52-28.92-1.12-53.38-4.17,2.8-10.22,7.86-12.73,15.86-.38,1.22-1,3.59-1.28,12.79C64.31,336,42.53,331.22,37.5,313Z" transform="translate(0 12.22)"/><path class="cls-45" d="M115.7,325.18c-5.81.72-7.39,6.75-12.78,6.4-11.74-.77-21.15-21.09-16.2-32.18,3.23-7.23,11.66-8.5,11.08-13.21-.46-3.77-6.3-6.68-11.08-6.82-7.43-.22-12.34,6.25-14.06,8.52a25.55,25.55,0,0,0-5,14.89,32.73,32.73,0,0,1,11.1-12c-11.4,24.46-10.42,43.91,1.12,52.93,8.19,6.4,21,9,31.33,7.9a82.13,82.13,0,0,0,26.59-7.69C131.58,333.78,123.64,324.21,115.7,325.18Z" transform="translate(0 12.22)"/><polygon class="cls-46" points="135.95 353.95 67.96 352.93 86.04 361.66 136.13 358.38 135.95 353.95"/><path class="cls-47" d="M40.79,301.35c5.25-5,18.12-1.84,22.92,5.29,3.53,5.26.61,9.58,3.2,16.2C70.07,331,82,338.28,89.37,340.72c-1.15,2.47-.81,3.11-2,5.59-4.67-.58-38.45-5.76-46.71-25.81C40.27,319.45,35.16,306.67,40.79,301.35Z" transform="translate(0 12.22)"/><path class="cls-24" d="M117.46,249s-5.49,5.94-10.06,6.56-11.16-.59-12.3,0,5.74,3,11.18,4.53,15.34,4.48,18.08,3.83-3-4.16-5.26-5.09,1-5.71,1-5.71Z" transform="translate(0 12.22)"/><path class="cls-48" d="M125.62,252.39a5.54,5.54,0,0,0,3.79-5.09,6,6,0,0,0-2.26-4.16c-2.42-2.36-6.63-3.84-9.69-2.29-1.81.92-2.63,5.09-2.82,5.81a5.73,5.73,0,0,0,.21,2.21c.12,1.11.3,2.88.56,5.8a13.63,13.63,0,0,1,2-1.34,12.75,12.75,0,0,1,2.9-1.15C123,251.56,123.74,252.91,125.62,252.39Z" transform="translate(0 12.22)"/><path class="cls-24" d="M114.26,251.5a7.52,7.52,0,0,0,3.2,6.68c3.27,2.19,9.12-4.45,8.27-7.46A5,5,0,0,0,123,248c-.78-.31-1.2-.21-2.46-.75s-1.35-.81-1.84-.79-1.45.57-2.41,3.09a2.14,2.14,0,0,0-1.36-2,1.36,1.36,0,0,0-.72.09C113.11,248.05,113.06,249.63,114.26,251.5Z" transform="translate(0 12.22)"/><path class="cls-49" d="M118.85,245.88c.06.23-.83.44-1.48,1.2a4.83,4.83,0,0,0,.35,5.93c.87.81,1.57.45,3.25,1.48a9,9,0,0,1,2.17,1.88,4.72,4.72,0,0,1-4.3,3.31c-1.87-.1-3-1.8-3.52-2.52a5.68,5.68,0,0,1-1.11-3.84c.27-1.92,1.63-2.15,1.46-3.72a8.93,8.93,0,0,1-.4-2.74,4.82,4.82,0,0,1,.14-.83C116.87,245.79,118.75,245.55,118.85,245.88Z" transform="translate(0 12.22)"/><path class="cls-50" d="M121.52,256.12a4.67,4.67,0,0,1-2-1.13c-.06,0-.13-.07-.16-.05s.25,1.16,1.09,1.5c.59.24,1.33.07,1.35-.1S121.65,256.19,121.52,256.12Z" transform="translate(0 12.22)"/><path class="cls-51" d="M91.18,306.55l-4.79,43.64c-.17,1.5,1.94,3.75,3.45,3.68l70.31-4.32a2.48,2.48,0,0,0,2.32-2.05l8.82-42.14c.27-1.54-2.49-3.12-4-3.08l-73.68,2.07A2.46,2.46,0,0,0,91.18,306.55Z" transform="translate(0 12.22)"/><path class="cls-52" d="M92.79,307.82,88,351.46a2.47,2.47,0,0,0,2.57,2.73l71.2-3.37a2.44,2.44,0,0,0,2.31-2l7.28-42.34a2.47,2.47,0,0,0-2.5-2.89l-73.68,2.08A2.46,2.46,0,0,0,92.79,307.82Z" transform="translate(0 12.22)"/><path class="cls-53" d="M134.59,340.6c-6.21-2.64-4-7.66-11.36-13.93-9.68-8.26-19.56-4.67-23-11.08-1.08-2-1.59-5.09.28-10.11l-5.33.15a2.46,2.46,0,0,0-2.38,2.19L88,351.46a2.47,2.47,0,0,0,2.57,2.73l71.2-3.37a2.44,2.44,0,0,0,2.31-2l1-5.85a26.88,26.88,0,0,0-7.76-2.9C146.88,337.91,141.75,343.63,134.59,340.6Z" transform="translate(0 12.22)"/><path class="cls-24" d="M85.28,344.79c3,2.79,5,2.54,5.63,2.38,1.12-.25,1.27-.88,4.11-3.1,2.53-2,3.34-2.21,3.31-2.89-.06-1.3-3-2.43-5.42-2.55A10.43,10.43,0,0,0,86,341.08Z" transform="translate(0 12.22)"/></g></g></g></g></svg>