<svg xmlns="http://www.w3.org/2000/svg" viewBox="0 0 154.68 132.86"><defs><style>.cls-1{fill:#e0e0e0;}.cls-2{fill:#fff;}.cls-3{fill:#f5f5f5;}.cls-4{fill:#ebebeb;}.cls-5{fill:#263238;}.cls-6{fill:#ffbe9d;}.cls-7{fill:#e8505b;}.cls-8{opacity:0.3;}.cls-9{fill:#455a64;}.cls-10{fill:#eb996e;}</style></defs><title>Asset 1email-conf-img</title><g id="Layer_2" data-name="Layer 2"><g id="Character"><path class="cls-1" d="M120.1,36.84l-15.64,7.42L133,50.87,122.13,37.3A1.66,1.66,0,0,0,120.1,36.84Z"/><path class="cls-1" d="M102.52,47.35h28.62a.37.37,0,0,1,.37.37V63.57a.89.89,0,0,1-.89.89H103a.89.89,0,0,1-.89-.89V47.73a.37.37,0,0,1,.37-.37Z" transform="translate(15.67 -24.97) rotate(13.07)"/><path class="cls-2" d="M131.12,50.85l-13.38,4.5L106,45.58l2.08-7.83A1.59,1.59,0,0,1,110,36.58l21.66,5a1.6,1.6,0,0,1,1.2,1.92Z"/><path class="cls-1" d="M116.89,54l-16,5.58h0a1.31,1.31,0,0,0,1,1.57L128,67.23a1.31,1.31,0,0,0,1.57-1l0-.1-11.2-11.78A1.37,1.37,0,0,0,116.89,54Z"/><rect class="cls-1" x="109.96" y="41.34" width="8.7" height="0.89" transform="translate(12.4 -24.76) rotate(13.06)"/><rect class="cls-3" x="109.3" y="44.73" width="19.31" height="1" transform="translate(13.3 -25.72) rotate(13.06)"/><rect class="cls-3" x="108.75" y="47.12" width="19.31" height="1" transform="translate(13.83 -25.53) rotate(13.06)"/><polygon class="cls-3" points="126.84 52.3 126.05 52.55 110.17 49.07 108.56 47.71 108.59 47.47 127.34 51.82 127.26 52.15 126.84 52.3"/><polygon class="cls-3" points="121.39 54.12 114.28 52.47 112.58 51.05 123.21 53.51 121.39 54.12"/><path class="cls-4" d="M116.31,54.23a5.24,5.24,0,0,1-.6.25l-1.66.59c-1.4.5-3.33,1.17-5.48,1.9s-4.09,1.39-5.5,1.85l-1.68.54a5.35,5.35,0,0,1-.62.17,3.2,3.2,0,0,1,.6-.25l1.65-.6,5.49-1.9c2.14-.73,4.09-1.38,5.5-1.84l1.67-.54A4.62,4.62,0,0,1,116.31,54.23Z"/><path class="cls-4" d="M129.54,66.16s-2.46-2.44-5.4-5.53S118.84,55,118.88,55s2.46,2.43,5.4,5.52S129.58,66.12,129.54,66.16Z"/><path class="cls-4" d="M131.76,50.63a2.45,2.45,0,0,1-.49.22l-1.35.53c-1.14.43-2.72,1-4.49,1.61s-3.37,1.12-4.53,1.47l-1.39.42A2.91,2.91,0,0,1,119,55a3.63,3.63,0,0,1,.5-.2l1.36-.47,4.52-1.53,4.5-1.56,1.37-.46A2.86,2.86,0,0,1,131.76,50.63Z"/><path class="cls-4" d="M116.31,54.23a3.27,3.27,0,0,1-.48-.37l-1.28-1.06-4.23-3.48c-1.66-1.35-3.14-2.59-4.2-3.52l-1.23-1.11a3.33,3.33,0,0,1-.43-.43,3.27,3.27,0,0,1,.48.37l1.28,1.06,4.23,3.48c1.65,1.35,3.14,2.59,4.19,3.52.53.46,1,.84,1.24,1.11A4.48,4.48,0,0,1,116.31,54.23Z"/><path class="cls-1" d="M131.12,50.85s0,0,0-.11l.06-.32.27-1.22c.24-1.07.58-2.6,1-4.48.05-.23.1-.47.16-.72a6.63,6.63,0,0,0,.15-.75,1.54,1.54,0,0,0-.67-1.34,2,2,0,0,0-.79-.28l-.87-.2L128.62,41l-8.12-1.88-8.12-1.89-1.83-.43a7.34,7.34,0,0,0-.86-.18,1.47,1.47,0,0,0-.8.17,1.48,1.48,0,0,0-.58.53,2.89,2.89,0,0,0-.27.73c-.13.51-.27,1-.39,1.47L106.44,44l-.34,1.2-.09.31a.7.7,0,0,1,0,.11.45.45,0,0,1,0-.11l.07-.32c.07-.29.18-.7.3-1.21.28-1.07.67-2.58,1.15-4.45l.38-1.47a2.75,2.75,0,0,1,.29-.78,1.68,1.68,0,0,1,1.52-.78,8.24,8.24,0,0,1,.89.18l1.83.42,8.12,1.88,8.12,1.89,1.83.43.87.2a2.37,2.37,0,0,1,.84.31,1.69,1.69,0,0,1,.73,1.49,5.83,5.83,0,0,1-.15.77l-.18.73c-.44,1.87-.81,3.39-1.07,4.46-.12.52-.22.92-.3,1.21l-.08.32Z"/><polygon class="cls-4" points="94.22 4.96 120.89 0 124.87 18.02 97.17 22.7 94.22 4.96"/><path class="cls-1" d="M120.89,0a.3.3,0,0,1,0,.08l-.15.2-.59.8L117.88,4c-1.9,2.46-4.52,5.83-7.42,9.59l0,.06-.08,0-.51-.27-11-5.87L95.43,5.64l-.91-.49L94.29,5l-.07,0,.08,0,.24.12.92.47,3.37,1.74,11.08,5.82.52.28-.13,0c2.93-3.73,5.56-7.1,7.47-9.54L120,1l.62-.77.17-.2Z"/><path class="cls-1" d="M97.17,22.7S98.84,20,101,16.63s4-6,4-6-1.66,2.75-3.83,6.08S97.22,22.73,97.17,22.7Z"/><path class="cls-1" d="M124.87,18s-2.53-1.87-5.57-4.27-5.48-4.38-5.45-4.42,2.53,1.86,5.58,4.26S124.91,18,124.87,18Z"/><polygon class="cls-3" points="137 17.43 154.68 21.71 152.18 33.84 133.94 29.1 137 17.43"/><path class="cls-1" d="M154.68,21.71s-.06.05-.19.13l-.58.32-2.15,1.18-7.17,3.84-.07,0-.06-.07-.24-.3-5.14-6.64-1.54-2-.41-.55c-.09-.13-.14-.2-.13-.21l.16.18.44.54,1.59,2,5.19,6.6.24.31-.12,0,7.19-3.78,2.18-1.12.6-.3A1.4,1.4,0,0,1,154.68,21.71Z"/><path class="cls-1" d="M133.93,29.1c0-.05,1.76-1.26,4-2.7s4.07-2.57,4.1-2.52-1.76,1.25-4,2.69S134,29.14,133.93,29.1Z"/><path class="cls-1" d="M152.17,33.84s-1.06-1.82-2.26-4.13-2.14-4.19-2.1-4.22,1.07,1.83,2.27,4.13S152.22,33.81,152.17,33.84Z"/><path class="cls-5" d="M118.59,125.52a4.49,4.49,0,0,1,.43.15c.28.11.7.25,1.26.41a15.19,15.19,0,0,0,5.06.51A20.21,20.21,0,0,0,129,126a22.41,22.41,0,0,0,4.13-1.44,25.1,25.1,0,0,0,8.43-6.44,7.86,7.86,0,0,0,1.54-2.57,4.06,4.06,0,0,0-.14-3,3.08,3.08,0,0,0-1.08-1.16,3.87,3.87,0,0,0-1.54-.53,6.1,6.1,0,0,0-3.31.54,11,11,0,0,1-1.67.59,3.22,3.22,0,0,1-1.82,0,2,2,0,0,1-1.31-1.28,2.26,2.26,0,0,1,.37-1.83,3.38,3.38,0,0,1,1.46-1.21,14.45,14.45,0,0,1,1.81-.65,24.4,24.4,0,0,0,3.57-1.47,23.51,23.51,0,0,0,3.37-2.08,7.63,7.63,0,0,0,1.49-1.34,2.81,2.81,0,0,0,.76-1.78,1.77,1.77,0,0,0-.28-.92,2.23,2.23,0,0,0-.72-.68,4.49,4.49,0,0,0-1.95-.55,11,11,0,0,1-2.11-.28,2.35,2.35,0,0,1-1.63-1.39,1.25,1.25,0,0,1,.13-1.11,2.77,2.77,0,0,1,.83-.74c.61-.39,1.2-.8,1.77-1.24a28.86,28.86,0,0,0,3.26-2.91A14.21,14.21,0,0,0,147,86.93a4.52,4.52,0,0,0,.45-2.13,3.29,3.29,0,0,0-.83-2,4.36,4.36,0,0,0-4-1.32,7.13,7.13,0,0,0-3.74,2.17c-2,2.14-3,5-4.69,7.29a12.19,12.19,0,0,1-1.38,1.65,4,4,0,0,1-.85.67,1.11,1.11,0,0,1-1.1,0,1.38,1.38,0,0,1-.58-.93,3.84,3.84,0,0,1,0-1.07,2.79,2.79,0,0,0,0-1,1.82,1.82,0,0,0-.48-.84,2.5,2.5,0,0,0-1.79-.7,2.83,2.83,0,0,0-1.77.75,4.44,4.44,0,0,0-1.11,1.6,6.82,6.82,0,0,0-.48,1.89c-.08.64-.1,1.29-.13,1.94l-.06,1.93c0,1.28-.08,2.54-.13,3.78,0,.62,0,1.23-.06,1.85a5.93,5.93,0,0,1-.35,1.81,2.16,2.16,0,0,1-1.26,1.3,2.65,2.65,0,0,1-1.78-.12,7,7,0,0,1-2.75-2.08,7.93,7.93,0,0,1-.92-1.41,13.25,13.25,0,0,0-.76-1.45,2.31,2.31,0,0,0-1.16-1,2.07,2.07,0,0,0-1.49.11,3,3,0,0,0-1.17.91,3.34,3.34,0,0,0-.6,1.33,20.25,20.25,0,0,0-.25,2.88c-.07.94-.1,1.86-.11,2.75a34.8,34.8,0,0,0,.3,5,25.1,25.1,0,0,0,.93,4.28c.18.65.45,1.24.66,1.82.12.28.25.55.37.82s.23.52.38.76a16.25,16.25,0,0,0,3,4.07c.2.21.4.37.57.52l.42.36c.23.19.34.3.34.3l-.35-.29-.43-.35a6,6,0,0,1-.58-.51,16.36,16.36,0,0,1-3.08-4.06,6.12,6.12,0,0,1-.38-.77c-.13-.27-.26-.53-.38-.82-.22-.58-.48-1.17-.67-1.82a25.38,25.38,0,0,1-1-4.29,33.69,33.69,0,0,1-.32-5c0-.89,0-1.81.1-2.76a21,21,0,0,1,.25-2.9,3.48,3.48,0,0,1,.62-1.39,3.22,3.22,0,0,1,1.23-1,2.23,2.23,0,0,1,1.59-.11,2.37,2.37,0,0,1,1.25,1,13.41,13.41,0,0,1,.77,1.45,7.86,7.86,0,0,0,.9,1.39,7.06,7.06,0,0,0,2.69,2,2.44,2.44,0,0,0,1.66.11,2,2,0,0,0,1.16-1.2,11.88,11.88,0,0,0,.4-3.61q.06-1.86.12-3.78l.06-1.93c0-.65,0-1.3.13-2a7.45,7.45,0,0,1,.48-1.94A4.69,4.69,0,0,1,126,89.38a3,3,0,0,1,1.89-.8,2.63,2.63,0,0,1,1.92.76,2,2,0,0,1,.54.92,3,3,0,0,1,0,1.07,3.79,3.79,0,0,0,0,1,1.17,1.17,0,0,0,.49.8.9.9,0,0,0,.91,0,4,4,0,0,0,.8-.64A11.79,11.79,0,0,0,134,90.84a42.35,42.35,0,0,0,2.19-3.7,17.93,17.93,0,0,1,2.52-3.62,7.23,7.23,0,0,1,3.85-2.22,4.53,4.53,0,0,1,4.2,1.38,3.45,3.45,0,0,1,.88,2.11,4.7,4.7,0,0,1-.47,2.22,14.14,14.14,0,0,1-2.69,3.57,27.49,27.49,0,0,1-3.28,2.93c-.58.45-1.17.86-1.78,1.26a2.53,2.53,0,0,0-.77.68,1.07,1.07,0,0,0-.12.94,2.19,2.19,0,0,0,1.5,1.26,12,12,0,0,0,2.08.28,4.74,4.74,0,0,1,2,.58,2.18,2.18,0,0,1,.78.73,2,2,0,0,1,.31,1,3,3,0,0,1-.8,1.91,8.51,8.51,0,0,1-1.52,1.36,24.72,24.72,0,0,1-7,3.57,14.42,14.42,0,0,0-1.78.64,3.29,3.29,0,0,0-1.4,1.15,2.07,2.07,0,0,0-.34,1.68,1.75,1.75,0,0,0,1.2,1.16,3.05,3.05,0,0,0,1.72.05,12,12,0,0,0,1.65-.59,6.36,6.36,0,0,1,3.4-.54,3.88,3.88,0,0,1,1.59.56,3.08,3.08,0,0,1,1.13,1.22,4.18,4.18,0,0,1,.15,3.16,7.91,7.91,0,0,1-1.57,2.61,25.38,25.38,0,0,1-8.49,6.45A22.92,22.92,0,0,1,129,126.1a21,21,0,0,1-3.65.57,14.78,14.78,0,0,1-5.07-.55c-.56-.17-1-.32-1.26-.43Z"/><path class="cls-5" d="M120.75,120.82a113.83,113.83,0,0,1,5-12l1.46-3.08c.49-1,1-2,1.5-3a56,56,0,0,1,3.35-5.3c1.15-1.64,2.3-3.14,3.39-4.55s2.13-2.69,3.12-3.82a46.15,46.15,0,0,1,5.1-5c.65-.54,1.16-.94,1.52-1.21l.4-.3.14-.1s0,.05-.13.12l-.39.32c-.34.28-.84.69-1.48,1.24a47.8,47.8,0,0,0-5,5c-1,1.14-2,2.43-3.1,3.83s-2.22,2.92-3.36,4.55a58.39,58.39,0,0,0-3.33,5.29c-.53,1-1,1.94-1.49,3l-1.46,3.08a117.63,117.63,0,0,0-5,12"/><path class="cls-5" d="M128.74,102.72a3.18,3.18,0,0,1-.1-.54c0-.35-.11-.87-.18-1.5-.13-1.27-.25-3-.37-5s-.27-3.68-.42-4.94c-.07-.63-.14-1.14-.19-1.5a2.27,2.27,0,0,1,0-.55,3.37,3.37,0,0,1,.13.54c.08.35.17.85.26,1.48.19,1.26.37,3,.49,5s.23,3.64.31,5c0,.59.07,1.09.1,1.5A2.32,2.32,0,0,1,128.74,102.72Z"/><path class="cls-5" d="M145.13,100.31a2.59,2.59,0,0,1-.65,0c-.42,0-1,0-1.78.11-1.49.1-3.55.32-5.82.65-2,.31-4,.66-5.76,1.07-.74.16-1.33.3-1.74.4a2.8,2.8,0,0,1-.64.13,5.41,5.41,0,0,1,.62-.22c.4-.12,1-.29,1.72-.47,1.46-.37,3.5-.8,5.77-1.14a56.54,56.54,0,0,1,5.84-.59c.76,0,1.36,0,1.79,0A4.21,4.21,0,0,1,145.13,100.31Z"/><path class="cls-5" d="M121,120.52s0-.06-.11-.2-.15-.36-.25-.6c-.22-.52-.52-1.28-.87-2.23-.72-1.89-1.62-4.54-2.57-7.47s-1.84-5.59-2.51-7.5l-.8-2.25-.22-.62-.06-.22a.74.74,0,0,1,.11.2l.25.6c.22.52.52,1.29.88,2.23.71,1.9,1.61,4.55,2.57,7.48s2.21,6,2.88,7.92c.33.93.22,1.26.42,1.83l.22.61A1.45,1.45,0,0,1,121,120.52Z"/><path class="cls-5" d="M142.84,114.39s-.07,0-.21.08l-.64.19-2.34.66c-2,.56-4.71,1.36-7.72,2.25-2.81.84-5.43,1.59-7.73,2.19-1,.26-1.8.46-2.37.59l-.64.14a.67.67,0,0,1-.23,0l.22-.08.63-.18,2.35-.66c2-.56,4.7-1.36,7.71-2.25s5.74-1.67,7.73-2.19c1-.26,1.81-.46,2.37-.59l.64-.14Z"/><path class="cls-6" d="M79.3,31.82s-.22-1.07-.6-4.16L75.3,21s.75-1.39,2.51,1.56a1.68,1.68,0,0,0,3-1.33,2.71,2.71,0,0,0-4.88-1s-1.09.1-1.21-.74,2.33-3,4.43-2.35a6.46,6.46,0,0,1,2.32,1.31s-.46-7,.11-7.08,1.36.37,1.79,8.06c0,0,.24-6.07.36-6.84s1.16-1.3,1.29.64c0,.22.4,6.19.4,6.19s.68-4,.75-4.26c.2-.84,1-.75,1.1.36.06.83.33,4.4.33,4.4l.51,11h.07"/><path class="cls-7" d="M90.19,28.22l-12.78-.33L76.13,58.83,61.68,52.45l0,0c-.87-.39-1.63-.73-2-1-8-4.36-13.24-4.88-21.81-1.82h0L21.37,56.3c-3.18,1.49-11.46,2.88-14.3,16L6.7,73.83l13.13,9.43,9,23.76,10.81,23.8L64.47,130l13-16.17-11-21L59.59,69.27c4.84,3.21,13.81,7.57,24.55,5.3C95.78,72.1,90.19,28.22,90.19,28.22Z"/><g class="cls-8"><path d="M28.76,106.8a25.19,25.19,0,0,0,6.32,2.75,4.54,4.54,0,0,0,3.67,0c1.07-.66,1.24-2.62,0-3l10.41-2.35c-1.41-4.07.92-8.71,4.45-11.19s7.53-3.18,11.82-3.55l5.19,16.12L53.3,129.22l-14.23.41Z"/></g><path class="cls-7" d="M23.31,84.54s-6.51,14.24-5,21.35c.83,4,13.84,7.37,22.12,8.38l-2.48,13.91s-30.8-2.93-36.57-15.13c-3.28-6.92,0-23.87,6.28-43.06Z"/><path class="cls-2" d="M53,101.23l-.22.11-.66.31c-.56.26-1.39.62-2.42,1-2.06.85-4.93,2-8.17,3s-6.23,1.82-8.4,2.32c-1.09.25-2,.44-2.58.56l-.71.13a.74.74,0,0,1-.24,0l.24-.07.69-.17,2.57-.62c2.16-.53,5.13-1.33,8.36-2.37s6.12-2.11,8.19-2.94l2.44-1,.67-.27A.77.77,0,0,1,53,101.23Z"/><path class="cls-2" d="M61.55,52c0,.05-12.12,4.45-27.11,9.83S7.28,71.53,7.26,71.48,19.38,67,34.37,61.65,61.54,52,61.55,52Z"/><path class="cls-5" d="M20.15,91.74s0,0,0-.08l.1-.24.4-.92c.34-.8.82-2,1.31-3.44a26.34,26.34,0,0,0,1.18-5.32,17.78,17.78,0,0,0-.47-6.61,13,13,0,0,0-3.22-5.74,11.1,11.1,0,0,0-4.6-2.78,9.68,9.68,0,0,0-3.62-.38l-.58.07-.41.08-.26.05H9.91l.09,0,.25-.07.41-.1.58-.09a9.34,9.34,0,0,1,3.67.33,11.1,11.1,0,0,1,4.7,2.78,13,13,0,0,1,3.27,5.82,17.73,17.73,0,0,1,.47,6.68,26.72,26.72,0,0,1-1.23,5.34,35,35,0,0,1-1.38,3.43c-.18.4-.32.7-.43.91l-.12.23S20.15,91.75,20.15,91.74Z"/><path class="cls-5" d="M51.09,48.8l.22.1a5.07,5.07,0,0,1,.6.35A8.09,8.09,0,0,1,53.77,51a12.58,12.58,0,0,1,1.82,3.3,42.25,42.25,0,0,1,1.34,4.42c.84,3.15,1.59,6,2.15,8.09.26,1,.47,1.86.62,2.46l.16.68a1.93,1.93,0,0,1,0,.23.73.73,0,0,1-.09-.22l-.19-.67c-.17-.6-.41-1.43-.69-2.44-.57-2.09-1.35-4.93-2.2-8.08a42.92,42.92,0,0,0-1.32-4.4,12.8,12.8,0,0,0-1.76-3.29,9,9,0,0,0-1.79-1.76C51.38,49,51.08,48.82,51.09,48.8Z"/><path class="cls-2" d="M72.39,57.08l-.17.08-.51.23-2,.83c-1.71.72-4.19,1.75-7.27,3-6.14,2.51-14.67,5.89-24.15,9.47S20.2,77.36,13.93,79.54c-3.14,1.09-5.68,1.95-7.44,2.54l-2,.68-.53.17-.18,0,.17-.07.53-.19,2-.71,7.42-2.61c6.26-2.21,14.89-5.32,24.37-8.9s18-6.94,24.17-9.41l7.29-2.94,2-.8.51-.21Z"/><path class="cls-2" d="M61.11,72.45l-.14.07-.44.18-1.7.71c-1.47.61-3.62,1.47-6.27,2.51C47.24,78,39.86,80.78,31.62,83.6s-15.78,5.15-21.26,6.75c-2.74.8-5,1.44-6.5,1.86l-1.78.48-.46.12-.16,0,.16,0,.45-.14,1.77-.52c1.53-.44,3.74-1.09,6.48-1.91,5.46-1.64,13-4,21.23-6.81s15.63-5.57,21-7.62c2.67-1,4.82-1.86,6.3-2.45l1.71-.67L61,72.5C61.06,72.46,61.11,72.44,61.11,72.45Z"/><path class="cls-2" d="M91.23,59.11,91,59.3l-.67.53c-.29.22-.65.5-1.08.8s-.91.66-1.46,1c-1.09.75-2.42,1.6-3.93,2.5s-3.2,1.81-5,2.7-3.59,1.65-5.22,2.3-3.11,1.16-4.38,1.56c-.62.21-1.2.37-1.71.52s-.94.26-1.3.36l-.82.2a1.09,1.09,0,0,1-.29.06,1.54,1.54,0,0,1,.28-.09l.81-.25,1.29-.39c.5-.16,1.08-.33,1.7-.55,1.25-.41,2.73-1,4.36-1.6s3.38-1.42,5.19-2.3,3.5-1.81,5-2.68,2.84-1.72,3.94-2.46c.55-.36,1-.7,1.47-1s.8-.56,1.1-.78l.7-.49Z"/><path class="cls-2" d="M91.83,48.84s-3.52,1.47-7.9,3.17-8,3-8,3,3.52-1.47,7.9-3.18S91.81,48.79,91.83,48.84Z"/><path class="cls-2" d="M91.05,39.25c0,.06-3.09,1-6.93,2.07s-7,1.93-7,1.88,3.09-1,6.93-2.07S91,39.2,91.05,39.25Z"/><path class="cls-2" d="M90.37,29.88c0,.05-3,.76-6.71,1.57s-6.73,1.44-6.75,1.38,3-.76,6.71-1.57S90.36,29.82,90.37,29.88Z"/><path class="cls-2" d="M63.54,83.05S55,86.53,44.4,90.7s-19.19,7.52-19.21,7.47,8.55-3.48,19.14-7.66S63.52,83,63.54,83.05Z"/><path class="cls-2" d="M18.23,100l-.17.08-.52.21-1.92.73c-1.62.6-3.88,1.39-6.4,2.2s-4.82,1.46-6.5,1.92c-.83.22-1.51.4-2,.51l-.55.13c-.12,0-.19,0-.19,0l.18-.07.54-.16,2-.58c1.67-.49,4-1.17,6.48-2s4.78-1.57,6.41-2.13l1.94-.67.53-.17C18.16,100,18.23,100,18.23,100Z"/><path class="cls-2" d="M22.8,109.77s-4.13,1.78-9.27,3.87-9.33,3.74-9.35,3.69,4.13-1.79,9.27-3.87S22.78,109.72,22.8,109.77Z"/><path class="cls-2" d="M30.36,112.47s-2.28,2.79-5.2,6.16-5.31,6.07-5.35,6,2.29-2.8,5.2-6.16S30.32,112.43,30.36,112.47Z"/><path class="cls-2" d="M38.09,114.43c.06,0-.88,2.95-2.08,6.56s-2.23,6.51-2.28,6.49.88-3,2.09-6.56S38,114.41,38.09,114.43Z"/><path class="cls-2" d="M88.63,71.09s-2.2,1-4.95,2-5,1.91-5,1.86,2.19-1,4.94-2S88.61,71,88.63,71.09Z"/><g class="cls-8"><path d="M55.75,55c3.58,9.68,10,15.09,19.11,19.94a33.51,33.51,0,0,1-15-5.5"/></g><path class="cls-9" d="M52.52,132.2h68.61V102.88a10,10,0,0,0-9.95-9.94H62.46a9.94,9.94,0,0,0-9.94,9.94Z"/><path class="cls-9" d="M68.91,92.94h0a7.42,7.42,0,0,1,7.42,7.42v30.88a.95.95,0,0,1-.95.95H53.46a.95.95,0,0,1-.95-.95V109.34A16.4,16.4,0,0,1,68.91,92.94Z"/><path class="cls-5" d="M57.58,132.2V102.84a9.9,9.9,0,0,1,9.9-9.9H60.42s-8.29,1.1-8.29,11.47.27,27.79.27,27.79Z"/><rect class="cls-5" x="18.77" y="129.41" width="57.56" height="3.27"/><rect class="cls-9" x="76.34" y="129.41" width="47.03" height="3.27"/><path class="cls-5" d="M76.34,131s0,0,0-.12V124.4c0-4.11,0-9.78.09-16,0-1.56,0-3.09-.05-4.56a16.59,16.59,0,0,0-.74-4.15,9.14,9.14,0,0,0-4.41-5.39A9.82,9.82,0,0,0,66.58,93a6,6,0,0,0-.76,0l-.55,0-.34.05h-.12l.11,0,.34-.07c.15,0,.34,0,.56-.07a5.72,5.72,0,0,1,.76,0,9.82,9.82,0,0,1,7.32,3.28,9.87,9.87,0,0,1,1.89,3.37,16.54,16.54,0,0,1,.76,4.2c.1,1.48.06,3,0,4.57-.06,6.26-.11,11.92-.15,16,0,2,0,3.7-.06,4.86,0,.56,0,1,0,1.32v.35A.87.87,0,0,0,76.34,131Z"/><path class="cls-5" d="M123,129.33s-10.71.12-23.92.14-23.93,0-23.93-.06,10.71-.12,23.93-.14S123,129.27,123,129.33Z"/><path class="cls-5" d="M123,132.81c0,.05-10.63.07-23.75,0s-23.76-.11-23.76-.16,10.64-.08,23.76,0S123,132.75,123,132.81Z"/><path class="cls-5" d="M116.85,125.68s0-.05,0-.14v-.4c0-.36,0-.88,0-1.55,0-1.36,0-3.33,0-5.81l.06.06-30.79,0s-.1.1.1-.1h0v7.89l-.1-.1,22,0,6.48,0h1.77l-1.72,0-6.46,0-22,0H86v-8h0l.1-.1,30.79,0h.06v.06c0,2.5,0,4.48,0,5.84,0,.67,0,1.18,0,1.54v.39C116.85,125.64,116.85,125.68,116.85,125.68Z"/><path class="cls-5" d="M99.46,119.81v3.52h-.35v-2.81l-1.38,2.36h-.18l-1.38-2.35v2.8h-.36v-3.52h.31l1.53,2.61,1.51-2.61Z"/><path class="cls-5" d="M102.81,122.39h-2l-.42.94H100l1.61-3.52H102l1.6,3.52h-.39Zm-.14-.3-.84-1.89-.84,1.89Z"/><path class="cls-5" d="M104.2,119.81h.38v3.52h-.38Z"/><path class="cls-5" d="M105.72,119.81h.37V123h2v.33h-2.34Z"/><path class="cls-7" d="M112.89,84.91V79.13H102.1V102.3a4.58,4.58,0,1,0,4.43-.12V84.91Z"/><circle class="cls-5" cx="104.55" cy="106.16" r="1.77"/><path class="cls-5" d="M38.28,49.88a1.17,1.17,0,0,1,.1.23,6.68,6.68,0,0,1,.23.71,8.65,8.65,0,0,1,.26,2.7,8.87,8.87,0,0,1-1.12,3.86,7.94,7.94,0,0,1-3.6,3.32,7.6,7.6,0,0,1-4.86.59,8.17,8.17,0,0,1-3.57-1.86A7.93,7.93,0,0,1,24,57.31a5,5,0,0,1-.33-.66l-.09-.24s.16.32.48.87a8.77,8.77,0,0,0,1.73,2,8,8,0,0,0,3.51,1.77,7.41,7.41,0,0,0,4.73-.58,7.9,7.9,0,0,0,3.53-3.23,9,9,0,0,0,1.14-3.78,8.82,8.82,0,0,0-.2-2.67C38.39,50.22,38.26,49.89,38.28,49.88Z"/><polygon class="cls-4" points="71.07 109.5 76.32 109.43 76.12 127.29 71.24 127.49 71.07 109.5"/><path class="cls-5" d="M71.24,127.49a31.08,31.08,0,0,1,2.33-2.67,30.94,30.94,0,0,1,2.48-2.52A32,32,0,0,1,73.72,125,32.21,32.21,0,0,1,71.24,127.49Z"/><path class="cls-5" d="M76.32,115.45a37.4,37.4,0,0,1-2.7-2.86,37.2,37.2,0,0,1-2.55-3s1.25,1.25,2.7,2.86A34.85,34.85,0,0,1,76.32,115.45Z"/><path class="cls-5" d="M31.68,31.17a1.4,1.4,0,0,0,.84,1.27,1.39,1.39,0,0,0,1.5-.27c.74-.7.49-1.94,0-2.86a5.15,5.15,0,0,1-1-2.86,7.06,7.06,0,0,1,1-2.11,4.41,4.41,0,0,0,.09-3.94,3.71,3.71,0,0,0-3.29-2.06c-1.39,0-2.86.9-4.09.25-.9-.46-1.28-1.55-2.05-2.2-1.21-1-3-.66-4.46,0S17.49,18,15.92,18a22.59,22.59,0,0,1-3.86-.66A7,7,0,0,0,5,21.09,7.06,7.06,0,0,0,6.22,29a4.37,4.37,0,0,0,2.65,1.4"/><path class="cls-6" d="M33.42,60.6h0a7.79,7.79,0,0,1-9.83-4.94c-.78-2.33-1.43-4.3-1.43-4.3s-6.2,1-8.14-4.94-5-19-5-19l-.19-.8c5.92-5.1,14.33-5.95,21.67-3.27l.38,1.22,7.68,26.69A7.79,7.79,0,0,1,33.42,60.6Z"/><path class="cls-5" d="M14.2,36.11a.91.91,0,0,0-.45-1.63.83.83,0,0,0-.61.16.91.91,0,0,0,.44,1.64A.81.81,0,0,0,14.2,36.11Z"/><path class="cls-5" d="M11.74,35.37c.12.08.56-.55,1.37-.82s1.54,0,1.6-.16-.12-.21-.44-.33a2.18,2.18,0,0,0-1.32,0,2.21,2.21,0,0,0-1.06.78C11.71,35.13,11.68,35.34,11.74,35.37Z"/><path class="cls-5" d="M21.68,32.81a.89.89,0,0,0,.09,1.27A.9.9,0,1,0,23,32.72.89.89,0,0,0,21.68,32.81Z"/><path class="cls-5" d="M20.59,33.39c.13.07.57-.56,1.38-.82s1.54,0,1.6-.16-.13-.21-.45-.33a2.14,2.14,0,0,0-1.31,0,2.1,2.1,0,0,0-1.06.78C20.56,33.15,20.53,33.36,20.59,33.39Z"/><path class="cls-5" d="M19.45,41.14a4.42,4.42,0,0,0-1.4.15c-.22,0-.41.05-.47-.07a1.21,1.21,0,0,1,0-.66q.06-.9.12-1.86a25.11,25.11,0,0,0,0-4.79,26.41,26.41,0,0,0-.49,4.76c0,.65-.06,1.26-.08,1.86a1.41,1.41,0,0,0,.16.92.57.57,0,0,0,.46.22,1.36,1.36,0,0,0,.38-.07A4.64,4.64,0,0,0,19.45,41.14Z"/><path class="cls-2" d="M22.38,41.2c.69-.77-1.94,2-3.63,2.43a2.37,2.37,0,0,0,2.94,0A1.79,1.79,0,0,0,22.38,41.2Z"/><path class="cls-10" d="M22.12,51.28a14.45,14.45,0,0,0,7-4.62s-.48,4.83-6.55,6.16Z"/><path class="cls-6" d="M31.73,28.61c.11-.08,4.3-1.72,5.16,3.49s-4.68,4.36-4.71,4.21S31.73,28.61,31.73,28.61Z"/><path class="cls-10" d="M33.47,34.22s.1.05.27.09a.92.92,0,0,0,.68-.1,2.28,2.28,0,0,0,.7-2.18,2.93,2.93,0,0,0-.47-1.26,1.07,1.07,0,0,0-.8-.59.49.49,0,0,0-.49.34c0,.16,0,.26,0,.27s-.13-.07-.12-.29a.53.53,0,0,1,.15-.36.75.75,0,0,1,.48-.22,1.32,1.32,0,0,1,1.08.65,3.18,3.18,0,0,1,.56,1.4,2.4,2.4,0,0,1-1,2.47,1,1,0,0,1-.86,0C33.5,34.34,33.45,34.23,33.47,34.22Z"/><path class="cls-5" d="M8.33,30.29a10.26,10.26,0,0,0,8.12-2.92c2.64-2.4,6-4.15,7-3.76s2,3.52,5.32,3.6c0,0,1.49,6.1,3.84,5.21s-1.78-9.83-1.78-9.83l-6.63-2.43-6.78.58-6.87,2.78L7.18,27.1Z"/><path class="cls-5" d="M29.82,17.41a6,6,0,0,0-1.25.63,6.1,6.1,0,0,0-.95,1,1.92,1.92,0,0,1,.83-1.2A1.87,1.87,0,0,1,29.82,17.41Z"/><path class="cls-5" d="M26.68,15.72a1.84,1.84,0,0,1,.27.51,5.51,5.51,0,0,1,.39,1.35,4,4,0,0,1,0,1.41,1.28,1.28,0,0,1-.2.54,7.8,7.8,0,0,0,0-1.92C27,16.56,26.61,15.75,26.68,15.72Z"/><polygon class="cls-1" points="42.51 109.23 69.18 104.27 73.17 122.3 45.47 126.97 42.51 109.23"/><path class="cls-5" d="M69.18,104.27l0,.08-.15.21-.6.79-2.22,2.9c-1.9,2.46-4.51,5.84-7.42,9.59l0,.07-.08,0-.51-.28-11-5.87-3.34-1.8-.9-.5-.24-.14-.07,0,.08,0,.25.11.92.47,3.36,1.74,11.08,5.83.52.27-.13,0,7.47-9.55,2.27-2.87.62-.77.17-.2Z"/><path class="cls-5" d="M45.47,127s1.66-2.75,3.83-6.08,4-6,4-6-1.67,2.74-3.84,6.07S45.51,127,45.47,127Z"/><path class="cls-5" d="M73.17,122.3s-2.53-1.87-5.58-4.27-5.48-4.38-5.44-4.42,2.52,1.86,5.57,4.26S73.2,122.25,73.17,122.3Z"/><path class="cls-6" d="M43.21,113.25s.19,3.5,1.87,3.46,7.62-3.27,8.31-2.15-1.13,2.68-1.13,2.68,2.09,0,1.31,1.22-3.1,7.12-5.26,7.67c-3.09.79-10.22,1.1-10.22,1.1L40.29,115Z"/><path class="cls-10" d="M52.91,116.51s-.07.1-.23.25-.38.36-.68.61a19,19,0,0,1-5.14,3.1c-.35.14-.65.25-.85.31a1,1,0,0,1-.33.08,12.17,12.17,0,0,1,1.13-.52A28.44,28.44,0,0,0,49.45,119a26.2,26.2,0,0,0,2.47-1.69C52.52,116.8,52.89,116.49,52.91,116.51Z"/><path class="cls-10" d="M52.81,120a3.54,3.54,0,0,1-.61.88,9.66,9.66,0,0,1-1.92,1.74,9.31,9.31,0,0,1-2.3,1.18,3.29,3.29,0,0,1-1,.26s.38-.14,1-.39a12.75,12.75,0,0,0,2.24-1.21,11.8,11.8,0,0,0,1.92-1.67C52.54,120.28,52.79,120,52.81,120Z"/></g></g></svg>