<svg xmlns="http://www.w3.org/2000/svg" viewBox="0 0 82.06 51.2"><defs><style>.cls-1{fill:#407bff;}.cls-2{fill:#fff;opacity:0.6;}.cls-3,.cls-4,.cls-7,.cls-8{fill:#3f7077;}.cls-4{opacity:0.2;}.cls-5,.cls-6{fill:#232e30;}.cls-6{opacity:0.4;}.cls-7{opacity:0.3;}.cls-8{opacity:0.5;}</style></defs><title>Asset 3email-aero</title><g id="Layer_2" data-name="Layer 2"><g id="Mail"><polygon class="cls-1" points="0 17.97 72.35 28.39 82.06 38.19 0 17.97"/><polygon class="cls-2" points="0 17.97 72.35 28.39 82.06 38.19 0 17.97"/><polygon class="cls-3" points="0 17.97 72.35 28.39 69 42.56 0 17.97"/><polygon class="cls-4" points="0 17.97 72.35 28.39 69 42.56 0 17.97"/><path class="cls-5" d="M67.51,1.57l4.2,19.68a2,2,0,0,1-1.52,2.36l-37.48,8a2,2,0,0,1-2.35-1.52l-4.2-19.69A2,2,0,0,1,27.68,8L65.16,0a2,2,0,0,1,2.35,1.53Z"/><path class="cls-6" d="M67.51,1.57l4.2,19.68a2,2,0,0,1-1.52,2.36l-37.48,8a2,2,0,0,1-2.35-1.52l-4.2-19.69A2,2,0,0,1,27.68,8L65.16,0a2,2,0,0,1,2.35,1.53Z"/><path class="cls-3" d="M66.59.28,54.07,15.65a8.06,8.06,0,0,1-9.89,2.11L26.47,8.84A2,2,0,0,1,27.68,8L65.16,0A2,2,0,0,1,66.59.28Z"/><polygon class="cls-1" points="0 17.97 59.68 32.16 69 42.56 0 17.97"/><polygon class="cls-2" points="0 17.97 59.68 32.16 69 42.56 0 17.97"/><rect class="cls-3" x="24.85" y="29.88" width="0.32" height="7.7" transform="translate(-16.73 38.26) rotate(-59.64)"/><rect class="cls-3" x="32.3" y="36.71" width="0.32" height="2.77" transform="translate(-16.81 46.84) rotate(-59.64)"/><polygon class="cls-3" points="0 17.97 59.68 32.16 48.08 46.14 0 17.97"/><path class="cls-3" d="M79.82,51.2a.66.66,0,0,1-.23,0l-9.72-3.85a.63.63,0,1,1,.46-1.18L80.06,50a.63.63,0,0,1,.35.82A.63.63,0,0,1,79.82,51.2Z"/><path class="cls-7" d="M79.82,51.2a.66.66,0,0,1-.23,0l-9.72-3.85a.63.63,0,1,1,.46-1.18L80.06,50a.63.63,0,0,1,.35.82A.63.63,0,0,1,79.82,51.2Z"/><path class="cls-3" d="M79.25,45.63a.59.59,0,0,1-.23-.05l-5.23-2.06a.64.64,0,0,1,.47-1.19l5.22,2.07a.64.64,0,0,1-.23,1.23Z"/><path class="cls-8" d="M79.25,45.63a.59.59,0,0,1-.23-.05l-5.23-2.06a.64.64,0,0,1,.47-1.19l5.22,2.07a.64.64,0,0,1-.23,1.23Z"/><path class="cls-3" d="M68.33,51.11a.68.68,0,0,1-.23,0l-9.48-3.75a.64.64,0,1,1,.47-1.18l9.48,3.75a.64.64,0,0,1,.35.83A.63.63,0,0,1,68.33,51.11Z"/><path class="cls-7" d="M68.33,51.11a.68.68,0,0,1-.23,0l-9.48-3.75a.64.64,0,1,1,.47-1.18l9.48,3.75a.64.64,0,0,1,.35.83A.63.63,0,0,1,68.33,51.11Z"/></g></g></svg>