<svg xmlns="http://www.w3.org/2000/svg" viewBox="0 0 447.26 338.27"><defs><style>.cls-1{fill:#eddac5;}.cls-2{fill:#6bb2ab;}.cls-3{fill:#389688;}.cls-4{fill:#e88846;}.cls-5{fill:#af3737;}.cls-6{fill:#f4e9dc;}.cls-7{fill:#c4532c;}.cls-8{fill:#8e2323;}.cls-9{fill:#e2cab0;}.cls-10{fill:#36344c;}.cls-11{fill:#f2b34e;}.cls-12{fill:#ea8c11;}.cls-13{fill:#d36d29;}.cls-14{fill:#aa3617;}.cls-15{fill:#f99958;}</style></defs><title>Asset 2welcomeuser</title><g id="Layer_2" data-name="Layer 2"><g id="OBJECTS"><path class="cls-1" d="M407.87,173.71c-2.76,42.61-35.44,83.29-79.7,85.81-50.84,3.9-97.51-24-148.15-24.28-25.82-2.21-50,7.67-75.2,10.87C48,248.19,39.32,181.4,49.92,138.35,94.62-64.62,411-37,407.87,173.71Z"/><polygon class="cls-2" points="406.78 338.27 367.87 338.27 353.56 270.04 343.63 338.27 302.87 338.27 308.48 287.48 312.01 255.52 314.14 236.25 369.44 222 394.41 223.37 406.78 338.27"/><path class="cls-3" d="M351.14,265l-19.8-11.62-5.59-3.27c-.36-.21-.62.37-.26.58l19.8,11.62,5.58,3.28C351.23,265.76,351.49,265.17,351.14,265Z"/><path class="cls-3" d="M350,266.43l-14.18-3.61c-.4-.1-.5.53-.1.63l14.18,3.62C350.25,267.17,350.34,266.53,350,266.43Z"/><path class="cls-3" d="M397.16,291.14q-2.42-20.94-4.81-41.88l-2.73-23.71a.32.32,0,0,0-.63.07l4.83,42.09q2.4,20.94,4.81,41.88,1.35,11.87,2.72,23.72a.32.32,0,0,0,.64-.07Z"/><path class="cls-4" d="M447.2,87.67A102.13,102.13,0,0,1,443.59,104q-2.08,7.42-4.14,14.84l-15.56-.38a13,13,0,0,1-4-4.11,37.44,37.44,0,0,1-3.36-7.47A30.57,30.57,0,0,0,413,99.51a9.06,9.06,0,0,1-1.58-2.67,2.24,2.24,0,0,1,1-2.67c1-.43,2.17.32,3,1.06a39.62,39.62,0,0,1,7.8,9.31l0,0q.45-13.38.88-26.75a4.11,4.11,0,0,1,.24-1.48,1.37,1.37,0,0,1,1.11-.9c.94-.06,1.44,1.05,1.67,2a78.29,78.29,0,0,1,2.27,17.58c.43-6.22,1.06-12.44,1.87-18.62a6.54,6.54,0,0,1,1.28-3.65,1.65,1.65,0,0,1,1.3-.63c.93.1,1.29,1.25,1.42,2.19a91.92,91.92,0,0,1,.32,20.64h0q1.68-8.79,3.37-17.57a2.38,2.38,0,0,1,.81-1.65c.86-.54,2,.24,2.47,1.13a9.07,9.07,0,0,1,.56,5.25,146.14,146.14,0,0,1-2.68,15.06q2-5.37,4.05-10.68c.28-.72.7-1.54,1.46-1.63a1.48,1.48,0,0,1,1.44,1A4.1,4.1,0,0,1,447.2,87.67Z"/><path class="cls-4" d="M312,255.52l-3.53,32c-3.15-.94-6.3-5.32-7.26-7.86-2-4.68-1.47-9.86-1.5-14.84.24-3.47-1-7.62.72-10.73,2.64-1.92,6.31-.1,9.15.57A8.27,8.27,0,0,1,312,255.52Z"/><path class="cls-5" d="M439,118l-16.43-.41-.91,0L418,132.31s-8.94-20.2-16.33-29.14-32.19-8.7-32.19-8.7l-33.34,6.82s-22.94,13.51-29.65,18.18-10.19,5.66-11.62,31.49,1.07,105.67,1.07,105.67,5.41,4.8,15.87,1l2.1-19s31.32,14,52.8-12.89c0,0,21-.27,27.74-2.42L393,185.29l1.43-27.89s14.13,29.77,30.94,29.14,15.19-39.24,15.55-68.47ZM318.07,205l.6-34.21,3,16.81Z"/><path class="cls-6" d="M369.44,94.47s-.4,3.48-1.27,7.64h0c-1,4.77-2.65,10.44-5,12.8l-2.86-1.25L355,124.32l-10.31-7.15L342,119.5s-7.66-3.94-11.15-15c0,0,.73-4.3,6.34-4.49l.09,3.08,14.08,6.47L363.1,97.32,362,94h0A10.47,10.47,0,0,1,369.44,94.47Z"/><path class="cls-7" d="M440.76,95.65a41.7,41.7,0,0,0-12.23-2c-.42,0-.34.64.07.64a40.38,40.38,0,0,1,11.89,2C440.88,96.36,441.15,95.77,440.76,95.65Z"/><path class="cls-7" d="M436.41,100.2a31.71,31.71,0,0,0-7.29,5.54c-.29.29.21.7.5.4a31.56,31.56,0,0,1,7.16-5.42C437.14,100.52,436.76,100,436.41,100.2Z"/><path class="cls-8" d="M317,142.68l-.46-8.26c0-.42-.66-.34-.64.07q.82,14.64,1.63,29.28L318,172c0,.41.67.34.64-.07Q317.84,157.32,317,142.68Z"/><path class="cls-8" d="M394.6,156.28c-1.64-5-3.44-9.94-5.42-14.81-.56-1.4-1.15-2.79-1.74-4.18-.16-.38-.76-.15-.6.23q3.11,7.26,5.71,14.71c.5,1.42,1,2.85,1.45,4.29C394.13,156.91,394.73,156.68,394.6,156.28Z"/><path class="cls-8" d="M392.12,156l-8.9-11c-.25-.32-.78.06-.52.38q4.46,5.51,8.9,11C391.86,156.74,392.38,156.36,392.12,156Z"/><path class="cls-8" d="M417.28,133.09q-2.38,8.73-4.75,17.46c-.45,1.65-.89,3.3-1.34,4.94-.11.4.53.5.63.11q2.39-8.74,4.75-17.47c.45-1.64.89-3.29,1.34-4.94C418,132.79,417.38,132.69,417.28,133.09Z"/><path class="cls-8" d="M380.9,211.4l-13.14,13.78c-.29.3.21.71.49.41q6.58-6.89,13.15-13.79C381.69,211.5,381.19,211.1,380.9,211.4Z"/><path class="cls-8" d="M373,214.34c-4.89,5.66-9.87,11.33-15.82,15.92-5.64,4.35-12.19,7.73-19.33,8.63a27.23,27.23,0,0,1-12.38-1.2c-.38-.14-.65.45-.26.59,7.07,2.49,14.89,1.66,21.72-1.2s12.58-7.47,17.73-12.62c3.09-3.1,6-6.4,8.84-9.71C373.78,214.43,373.28,214,373,214.34Z"/><path class="cls-8" d="M317.43,205.81a109.47,109.47,0,0,0-3.13,13.4q-.57,3.36-.93,6.74c-.22,2.13-.44,4.27-.47,6.41a9.69,9.69,0,0,0,1.54,6A.32.32,0,0,0,315,238a8.77,8.77,0,0,1-1.42-5.29,58,58,0,0,1,.44-6.32,107.75,107.75,0,0,1,2.16-13.12c.55-2.47,1.2-4.91,1.92-7.33C318.18,205.51,317.54,205.41,317.43,205.81Z"/><path class="cls-8" d="M368.3,154a109.29,109.29,0,0,0-18.93,17.28c-1.58,1.83-3.1,3.72-4.56,5.65-.25.33.24.74.49.41A109.78,109.78,0,0,1,363,158.94q2.79-2.28,5.71-4.38A.32.32,0,0,0,368.3,154Z"/><path class="cls-8" d="M365.29,167.66,354,175.43a.32.32,0,0,0,.38.52l11.32-7.77C366,168,365.63,167.43,365.29,167.66Z"/><path class="cls-9" d="M350.88,110.69a66.15,66.15,0,0,0-6.09,6.1c-.27.32.23.72.5.41a62.51,62.51,0,0,1,6-6C351.57,110.94,351.19,110.42,350.88,110.69Z"/><path class="cls-9" d="M360.27,113.18a52.83,52.83,0,0,0-7.21-3.22c-.39-.14-.66.45-.27.59a51.76,51.76,0,0,1,7.22,3.22C360.37,114,360.63,113.38,360.27,113.18Z"/><path class="cls-10" d="M359.72,62a14,14,0,0,1-7.62,6.91,13.58,13.58,0,0,1-9.26.21,21.68,21.68,0,0,1-7.07,1.35,20.69,20.69,0,0,1-6.21-.79,10.33,10.33,0,0,1-4.95-2.86c-2.67-2.94-2.61-7.09-1.95-10.8-1.81-2.22-3.19-5-2.58-7.93a6,6,0,0,1,1.74-3.17A10.63,10.63,0,0,1,325,43a26.17,26.17,0,0,0,3.58-1.72c1.26-.79,2.41-1.73,3.65-2.53,2.18-1.39,4.84-2.33,7.31-1.11a6.27,6.27,0,0,1,3.48,5,15.35,15.35,0,0,1,6.38-1.7,10.3,10.3,0,0,1,5.9,1.71C361.38,46.69,362.84,55.6,359.72,62Z"/><path class="cls-4" d="M360.71,71.91l.55,3a15.68,15.68,0,0,1-.07,5.84,16,16,0,0,1-2.05,5.16h0a15.68,15.68,0,0,1-23.07,4.12,15.83,15.83,0,0,1-3.94-4.52,15.38,15.38,0,0,1-1.85-5.08l-.55-3c-8.63,1.54-11-9.25-7.77-12.31l.26-.22a3.69,3.69,0,0,1,5.12.42c-1.27-6.1.83-9.51.83-9.51a33.56,33.56,0,0,0,8,.16,32.46,32.46,0,0,0,9.39-2.38,39.71,39.71,0,0,0,5.92-3.22s5.4,4.48,7.16,9.7v0s.95-2.61,3.26-2.78a4.07,4.07,0,0,1,1.88.35C367.84,59.42,369.36,70.37,360.71,71.91Z"/><path class="cls-4" d="M363.44,97l-12.11,12.57-14.92-6.08-.09-3.65-.25-9.82A15.67,15.67,0,0,0,359.14,86l3.26,8.39h0Z"/><path class="cls-4" d="M362.4,94.34l1,2.7-1.05-2.7Z"/><path class="cls-7" d="M359.14,86s-3.54,16.61-22.81,13.93l-.26-9.82A15.67,15.67,0,0,0,359.14,86Z"/><path class="cls-7" d="M348,75.82q-2.75.93-5.51,1.75-.11-6.39-.4-12.79c0-.45-.71-.37-.69.08q.3,6.61.4,13.22a.35.35,0,0,0,.48.28c2-.59,4-1.22,6-1.89C348.71,76.33,348.45,75.68,348,75.82Z"/><path class="cls-10" d="M352.6,76.21a7.59,7.59,0,0,1-3.31,7.05c-.37.25,0,.81.43.56a8.32,8.32,0,0,0,3.58-7.69A.35.35,0,0,0,352.6,76.21Z"/><circle class="cls-7" cx="335.21" cy="76.86" r="2.74"/><circle class="cls-7" cx="356.43" cy="70.84" r="2.74"/><ellipse class="cls-10" cx="335.45" cy="69.17" rx="1.97" ry="2.43" transform="translate(-6.14 94.2) rotate(-15.84)"/><ellipse class="cls-10" cx="349.93" cy="65.62" rx="1.97" ry="2.43" transform="translate(-4.62 98.02) rotate(-15.84)"/><path class="cls-10" d="M335.94,63.2a1.44,1.44,0,0,0-.91-.54h-.37a1.4,1.4,0,0,0-.68.27l-2.77,1.64a1.34,1.34,0,0,0-.53.9,1.39,1.39,0,0,0,1.17,1.59h.37a1.32,1.32,0,0,0,.68-.28l2.77-1.63a1.44,1.44,0,0,0,.54-.91A1.46,1.46,0,0,0,335.94,63.2Z"/><path class="cls-10" d="M345.87,60.38a1.43,1.43,0,0,1,.48-.93l.32-.2a1.38,1.38,0,0,1,.72-.13l3.22-.06a1.42,1.42,0,0,1,.93.49,1.45,1.45,0,0,1,.32,1,1.43,1.43,0,0,1-.48.93l-.32.2a1.38,1.38,0,0,1-.72.13l-3.22.06a1.42,1.42,0,0,1-.93-.49A1.45,1.45,0,0,1,345.87,60.38Z"/><polygon class="cls-5" points="89.37 254.4 79.55 338.27 125.64 338.27 135.09 276.55 145.78 338.27 193.38 338.27 179.53 254.4 89.37 254.4"/><path class="cls-8" d="M132.13,276.37l-12-3.46c-.38-.11-.47.51-.1.61L132,277C132.42,277.09,132.51,276.48,132.13,276.37Z"/><path class="cls-8" d="M130,278.64l-11.69.72c-.4,0-.33.64.07.62l11.69-.72C130.44,279.23,130.37,278.62,130,278.64Z"/><path class="cls-11" d="M110.18,105.11s-6.48,0-9.9,5.2c0,0-17.63,3.92-21.27,10.24s-25.74,42.32-25.74,42.32l19,37.34s9.17-2.22,8.16-11.88l6-7.55,4,25L87,262.49S99.78,274,107.89,275s28-12.65,28-12.65,19.42,12.7,26.64,13.43,19.14-14.1,19.14-14.1l-6.32-67.33,1.17-38.45L196.83,166s7,11.45,19.49,4L211.6,139.3s-31.62-22.7-39-27.7-31.9-4.53-31.9-4.53-4.18-4-8.53-3.36Z"/><path class="cls-12" d="M121,134.93a53.12,53.12,0,0,0-7.39-9.25,18.56,18.56,0,0,0-9.21-5,7.94,7.94,0,0,0-5.15.67,17.31,17.31,0,0,1,1.14-8.66c.15-.37-.42-.63-.57-.26a18.06,18.06,0,0,0-1.13,9.45.32.32,0,0,0,.49.21c2.92-1.91,6.87-.67,9.67.86a26.44,26.44,0,0,1,7.93,7.15c1.32,1.68,2.52,3.44,3.72,5.2C120.7,135.63,121.2,135.26,121,134.93Z"/><path class="cls-12" d="M143.19,110c-.15-.37-.73-.15-.57.22a38,38,0,0,1,2.48,8.54c-6.71.75-11.86,5.78-15.59,11.05-1.17,1.66-2.25,3.37-3.33,5.08-.21.33.27.72.48.39,3.54-5.63,7.41-11.62,13.65-14.52a15.66,15.66,0,0,1,5.19-1.42.31.31,0,0,0,.27-.35A38.53,38.53,0,0,0,143.19,110Z"/><path class="cls-12" d="M79.65,187a54.79,54.79,0,0,0-11.22-16.6,55.81,55.81,0,0,0-4.26-3.88c-.31-.26-.7.22-.4.48a54.45,54.45,0,0,1,12.77,15.13,53.64,53.64,0,0,1,2.54,5.09C79.24,187.58,79.81,187.36,79.65,187Z"/><path class="cls-12" d="M196.64,139.12c.08-.39-.53-.48-.61-.09a66.71,66.71,0,0,0-1.23,19.58c.15,1.88.39,3.74.71,5.6.06.39.68.32.61-.07a66.38,66.38,0,0,1-.4-19.6Q196.07,141.81,196.64,139.12Z"/><path class="cls-12" d="M131.63,214.21q-1.74-23.61-3.46-47.2-1-13.24-1.94-26.49c0-.4-.64-.33-.62.07q1.74,23.6,3.46,47.2T132.53,235l1.94,26.49c0,.4.64.33.62-.07Q133.35,237.81,131.63,214.21Z"/><path class="cls-12" d="M84,155.32l-1-6.56a.31.31,0,0,0-.61.07L85.75,172l1,6.56c.05.39.67.33.61-.07Q85.64,166.93,84,155.32Z"/><path class="cls-12" d="M84.77,177.27Q82.87,170.12,81,163c-.1-.38-.68-.16-.58.23q1.91,7.16,3.79,14.31C84.29,177.88,84.87,177.66,84.77,177.27Z"/><path class="cls-12" d="M177.29,132.78q-.45,8.35-.91,16.72l-.25,4.76c0,.39.59.49.61.09l.9-16.72c.09-1.58.17-3.17.26-4.75C177.92,132.48,177.31,132.38,177.29,132.78Z"/><path class="cls-13" d="M136,111.53,123,137.47l-15.91-24.14.5-5.67.89-10.08a16.14,16.14,0,0,0,24.1-1.5Z"/><path class="cls-14" d="M132.61,96.08s-5.31,13.56-24.72,8.55l.62-7a16.14,16.14,0,0,0,24.1-1.5Z"/><path class="cls-13" d="M134.93,84.14l.18,3a14.88,14.88,0,0,1-.7,5.55,15.39,15.39,0,0,1-2.51,4.69h0a15,15,0,0,1-22.41,1.4A15.35,15.35,0,0,1,106.24,94,15.08,15.08,0,0,1,105,89L104.85,86c-8.11.51-9.39-9.33-6.37-12.28a2.69,2.69,0,0,1,.32-.27l.27-.2a3.54,3.54,0,0,1,4.82,1,6.41,6.41,0,0,0,2-3.29,6.33,6.33,0,0,0-.23-3.68,5.12,5.12,0,0,0,4.53-5.36,5.61,5.61,0,0,0,3,.58,5.45,5.45,0,0,0,1.59-.34,5.61,5.61,0,0,0,3.21-3.23,7.72,7.72,0,0,0,9.91-.18,7.89,7.89,0,0,0,1.36,3.73,5.42,5.42,0,0,0,.63.82,8,8,0,0,0,3.63,2.43,7.5,7.5,0,0,0,.24,6.05h0c.16.18.33.35.5.53l0,.36v0h0c.07-.14,1.25-2.38,3.4-2.28a3.92,3.92,0,0,1,1.75.54,3.18,3.18,0,0,1,.63.48C143.08,74.3,142.81,83.66,134.93,84.14Z"/><path class="cls-14" d="M122.42,86.48c-1.8.39-3.62.74-5.44,1.06.4-4.06.75-8.14,1-12.21,0-.43-.64-.43-.66,0q-.44,6.32-1.06,12.62c0,.24.23.35.42.32,2-.34,3.94-.72,5.9-1.14C123,87,122.84,86.39,122.42,86.48Z"/><circle class="cls-14" cx="110.12" cy="86.07" r="2.63"/><circle class="cls-14" cx="130.96" cy="82.66" r="2.63"/><ellipse class="cls-10" cx="111.19" cy="78.78" rx="1.88" ry="2.33" transform="translate(-11.27 18.99) rotate(-9.3)"/><ellipse class="cls-10" cx="125.36" cy="76.98" rx="1.88" ry="2.33" transform="translate(-10.79 21.26) rotate(-9.3)"/><path class="cls-10" d="M112.3,73.15a1.29,1.29,0,0,0-.8-.61l-.35-.05a1.34,1.34,0,0,0-.68.19l-2.81,1.25a1.35,1.35,0,0,0-.61.81,1.33,1.33,0,0,0,.14,1,1.4,1.4,0,0,0,.8.61l.36,0a1.32,1.32,0,0,0,.67-.18L111.83,75a1.31,1.31,0,0,0,.62-.8A1.37,1.37,0,0,0,112.3,73.15Z"/><path class="cls-10" d="M122.06,71.55a1.32,1.32,0,0,1,.57-.83l.32-.16a1.38,1.38,0,0,1,.7,0l3.06.3a1.35,1.35,0,0,1,.84.56,1.37,1.37,0,0,1,.19,1,1.33,1.33,0,0,1-.56.84l-.33.16a1.38,1.38,0,0,1-.7,0l-3.06-.29a1.37,1.37,0,0,1-.84-.57A1.35,1.35,0,0,1,122.06,71.55Z"/><path class="cls-10" d="M142.3,67.58a9.24,9.24,0,0,1-2.3,3.83,3.18,3.18,0,0,0-.63-.48,3.92,3.92,0,0,0-1.75-.54c-2.15-.1-3.33,2.14-3.4,2.28a0,0,0,0,1,0,0l0-.36c-.17-.18-.34-.35-.5-.53h0a7.52,7.52,0,0,1-.66-4.55,5.91,5.91,0,0,1-3.73-.69,6.1,6.1,0,0,1-2.61-3.06,6.65,6.65,0,0,1-2.29.8,7,7,0,0,1-5.26-1.43,7.55,7.55,0,0,1-1.61,1.11,7.43,7.43,0,0,1-5.5.43,6.54,6.54,0,0,1-1.56,2.45,6.93,6.93,0,0,1-4.5,2,6.34,6.34,0,0,1-.11,2.17,6.41,6.41,0,0,1-2,3.29,3.54,3.54,0,0,0-4.82-1l-.27.2a2.69,2.69,0,0,0-.32.27,3.34,3.34,0,0,1,.54-5.5,4.19,4.19,0,0,1-1.1-4,4.15,4.15,0,0,1,3-2.89,4.24,4.24,0,0,1,4.85-6.57,4.33,4.33,0,0,1,7.39-4.08,4.85,4.85,0,0,1,9-1.82,4.38,4.38,0,0,1,8.18.72,3.78,3.78,0,0,1,4.85.51A7.23,7.23,0,0,1,137,55a3.36,3.36,0,0,1,3.73.91,4.92,4.92,0,0,1,1.1,3.83,9.47,9.47,0,0,1-1.44,3.81C142,64,142.66,66,142.3,67.58Z"/><path class="cls-6" d="M128.16,92.72a5.24,5.24,0,0,1-5,2c-1.66-.26-4.08-1.71-3.45-3.74a3,3,0,0,1,2.07-1.78,4.23,4.23,0,0,1,2.54,0,3.81,3.81,0,0,1,1.3-2,2.13,2.13,0,0,1,2.73.07C129.83,88.74,129.23,91.27,128.16,92.72Z"/><path class="cls-13" d="M29.59,145.52s13.52,66.65,28.55,63.3,16.45-10.79,13.93-17-27.37-53-27.37-53,0-9.28-2.51-17-1.51-17.71-2.61-18.93-5.71-2.88-5,14.06c0,0-19-21.91-22-18.85s10.75,18.39,10.75,18.39S5,101.73,3.27,104.29s14,16.17,14,16.17-13.07-10.77-15-8.74,13.43,14.4,13.43,14.4-15.66-2-15.7.76,14.78,4.57,14.78,4.57S21.25,142.33,29.59,145.52Z"/><path class="cls-14" d="M28,116.12c-1.07.63-2.1,1.32-3.11,2a.47.47,0,0,0-.05-.1l-1.76-2a.31.31,0,0,0-.42-.07.31.31,0,0,0-.07.43l1.76,2a.24.24,0,0,0,.09.08,48,48,0,0,0-5,4.1l-2.94-3.16a.31.31,0,0,0-.42-.07.3.3,0,0,0-.07.42l3,3.18a.1.1,0,0,0,0,0c-.5.47-1,1-1.45,1.45-.27.29.2.67.46.39a47.87,47.87,0,0,1,10.33-8.21C28.67,116.41,28.31,115.92,28,116.12Z"/><path class="cls-14" d="M31.66,124.15a31.21,31.21,0,0,0-1.58,9.14c0,.39.59.32.6-.07a30.09,30.09,0,0,1,1.53-8.82C32.34,124,31.79,123.78,31.66,124.15Z"/><path class="cls-14" d="M41.4,141.52a63.66,63.66,0,0,0-7,2.8c-.35.17-.13.73.22.57a61.76,61.76,0,0,1,7-2.8C42,142,41.77,141.4,41.4,141.52Z"/><path class="cls-13" d="M222.76,100.82s8.86,67.44-6.44,69.14-19.07-4.86-18.7-11.53,8.66-59.05,8.66-59.05-3-8.78-3.12-16.86-4.32-17.24-3.69-18.75,4.47-4.57,9.33,11.66c0,0,10.89-26.9,14.65-25s-4.2,20.88-4.2,20.88,12.53-19.93,15-18.07-8,19.82-8,19.82S235.16,58.68,237.63,60s-8,18-8,18,14.16-7,15.09-4.39-12.48,9.13-12.48,9.13S229.61,95.1,222.76,100.82Z"/><path class="cls-14" d="M214.74,72.5c1.21.24,2.41.56,3.6.9a.25.25,0,0,1,0-.12l1-2.48a.31.31,0,0,1,.38-.2.32.32,0,0,1,.2.38l-1,2.48-.06.1a46.41,46.41,0,0,1,6.06,2.26c.59-1.32,1.17-2.64,1.75-3.95a.32.32,0,0,1,.38-.2.3.3,0,0,1,.2.38l-1.76,4,0,0c.62.29,1.24.59,1.84.91.35.18,0,.69-.31.51a47.79,47.79,0,0,0-12.44-4.41C214.18,73,214.36,72.42,214.74,72.5Z"/><path class="cls-14" d="M213.86,81.29a31,31,0,0,1,4.47,8.13c.13.36-.46.49-.59.13a30.05,30.05,0,0,0-4.32-7.85C213.19,81.39,213.62,81,213.86,81.29Z"/><path class="cls-14" d="M210.29,100.88a63.74,63.74,0,0,1,7.57.36c.39.05.37.65,0,.61a61.8,61.8,0,0,0-7.57-.37C209.88,101.49,209.91,100.89,210.29,100.88Z"/><path class="cls-5" d="M274.45,89.83a10.09,10.09,0,0,1-10,3.21c-3.76-1-6.61-3.84-10-5.54-1.81-.9-3.77-1.62-5.18-3.13a4.65,4.65,0,0,1-.49-.59,6.29,6.29,0,0,1-.46-.65c-2-3.57.05-8.06,2.26-11A15.09,15.09,0,0,1,260.48,66,14,14,0,0,1,271,69.18a17.22,17.22,0,0,1,6.08,9.73A12.76,12.76,0,0,1,274.45,89.83Z"/><path class="cls-5" d="M280,102.22c0,13.46-9,21.49-20.36,21.49s-20.92-8-20.92-21.49,9.24-21.41,20.64-21.41S280,88.77,280,102.22Z"/><path class="cls-15" d="M179.4,60.18c-.37,2.89-1.25,5.68-1.8,8.55-.76,4-.88,8-1.59,12-.67,3.79-2,7.62-4.57,10.45l.09,2.91-14.94-3.7.33-4.61c-2.12-4.55-2.9-9.62-4.45-14.41-1.78-5.5-4.59-10.66-5.95-16.27a2.7,2.7,0,0,1-.1-1.09,1,1,0,0,1,.65-.81c.56-.15,1.05.38,1.39.86a62.88,62.88,0,0,1,5.37,9.14A99.17,99.17,0,0,1,150.78,48a10.94,10.94,0,0,1-.07-3.23c.07-.44.26-.93.69-1a1.14,1.14,0,0,1,1,.51,8.82,8.82,0,0,1,1.49,2.85c1.92,5.14,3.46,10.42,5,15.69l.12,0c-1.27-6.57-2.55-13.18-2.79-19.87a3.35,3.35,0,0,1,.1-1.14,1.1,1.1,0,0,1,.82-.74,1.49,1.49,0,0,1,1.24.77,15.57,15.57,0,0,1,2.17,5c1.12,3.81,2,7.7,2.71,11.6-.27-4.1-.52-8.2-.63-12.31a11.37,11.37,0,0,1,.38-4c.18-.54.59-1.14,1.15-1.06s.7.51.88.91c2.29,5,2.67,10.65,3.54,16.1A85.85,85.85,0,0,0,171,68.75a31.15,31.15,0,0,1,4.78-9.87,4.46,4.46,0,0,1,1.13-1.2,1.68,1.68,0,0,1,1.57-.2C179.45,57.9,179.53,59.17,179.4,60.18Z"/><path class="cls-13" d="M166,58.31c-.74.3-1.46.64-2.18,1-.07-.56-.15-1.12-.23-1.68a.31.31,0,0,0-.35-.28.32.32,0,0,0-.29.35c.09.6.17,1.2.25,1.79a.21.21,0,0,0,0,.11,33,33,0,0,0-7,4.91c-.3.28.08.8.38.52a32.55,32.55,0,0,1,9.66-6.11A.32.32,0,0,0,166,58.31Z"/><path class="cls-13" d="M154.17,62.75a.31.31,0,0,0-.45-.07.33.33,0,0,0-.07.45.56.56,0,0,1,0,.08v0l.09.17c0,.11.09.22.12.33a.75.75,0,0,1,0,.16l0,.05s0,0,0,.08,0,.25,0,.37a.33.33,0,0,0,.35.29.34.34,0,0,0,.29-.36A3.55,3.55,0,0,0,154.17,62.75Z"/><path class="cls-13" d="M167.46,75.91a26.39,26.39,0,0,0-7.91-7.19c-.35-.21-.62.37-.26.58a25.68,25.68,0,0,1,7.65,7C167.18,76.63,167.7,76.25,167.46,75.91Z"/><path class="cls-15" d="M324.05,309.76c0,.73,0,1.47,0,2.21a2.88,2.88,0,0,1-.45,1.79,1.26,1.26,0,0,1-1.33.46,1.66,1.66,0,0,1-1-1,13.76,13.76,0,0,1-.65-2c-.22-.72-.43-1.44-.62-2.16s-.34-1.31-.5-2c-.09,1.35-.2,2.7-.4,4.05a22.6,22.6,0,0,1-1.42,5.41c-.27.63-.61,1.41-1.33,1.62a1.22,1.22,0,0,1-1.41-.71,4.53,4.53,0,0,1-.29-2.13l.06-3.21c0-.81,0-1.63,0-2.44-.11.47-.22.93-.35,1.39a36.12,36.12,0,0,1-1.4,4.19c-.4,1-1.43,2.23-2.62,1.56a1.72,1.72,0,0,1-.78-1.25,11.62,11.62,0,0,1-.12-2.21,27.6,27.6,0,0,1,.16-2.87c-.37.65-.77,1.3-1.2,1.91a2.93,2.93,0,0,1-1.2,1.19,1,1,0,0,1-1.2-.38,1.83,1.83,0,0,1-.17-1.13,17.47,17.47,0,0,1,.35-1.75c.28-1.31.56-2.62.83-3.93s.57-2.67.85-4a29.74,29.74,0,0,0,.7-3.88,10.83,10.83,0,0,0-.4-3.5,24,24,0,0,1-1.24-2.29c-1.73-3.67-2.47-8-1-11.9a10.28,10.28,0,0,1,5.17-5.76l.51-.33A5.59,5.59,0,0,1,315,274a5.11,5.11,0,0,1,3,1.57c1.88,1.93,2.35,4.68,2.88,7.21.62,3,1.19,6,1.66,9A109.51,109.51,0,0,1,324.05,309.76Z"/><path class="cls-13" d="M314.51,295.53a36.08,36.08,0,0,1-1.17,9.14c-.18.59-.55,1.49-1.33,1.42s-.84-.92-1-1.43a38.15,38.15,0,0,1-.56-4.64,11.17,11.17,0,0,0-1.24-4.43c-.21-.36-.73,0-.52.38a11.41,11.41,0,0,1,1.18,4.7,17.89,17.89,0,0,0,.73,4.84,1.74,1.74,0,0,0,1.09,1.18,1.64,1.64,0,0,0,1.68-.66,5.73,5.73,0,0,0,.8-2.08,24.73,24.73,0,0,0,.49-2.54c.28-1.91.37-3.85.46-5.78C315.17,295.22,314.53,295.12,314.51,295.53Z"/><path class="cls-13" d="M310.19,306.85l-.57,3.48a.32.32,0,0,0,.64.1l.57-3.48A.32.32,0,0,0,310.19,306.85Z"/><path class="cls-13" d="M314.74,304.12l-.3,5.45c0,.41.61.52.63.1l.31-5.45C315.4,303.81,314.76,303.7,314.74,304.12Z"/><path class="cls-13" d="M319.16,299.08c-.08-.4-.72-.33-.64.07a43.16,43.16,0,0,1,.88,8.4c0,.42.64.34.63-.07A42.39,42.39,0,0,0,319.16,299.08Z"/><path class="cls-10" d="M254,238.86l-44.16-2.14s-15.38-.72-17.16,101.55h41.48L247,281.06l7,57.21h37.73s9.29-90.47-12.88-99.76Z"/><path class="cls-6" d="M282.73,242.26c-44.52,13-67.59-2.68-67.59-2.68l6.53-37.37,5.55-53.82,46.3,2.15,5.37,61.33C278.48,211.91,282.73,242.26,282.73,242.26Z"/><path class="cls-11" d="M264.22,185.5a65.32,65.32,0,0,1-.59,7.39c-.31,2.45-.63,4.9-1,7.34-.75,4.71-1.78,9.6-4.05,13.84-.88,1.64-2.15,3.3-4.06,3.71-2.11.44-4-.94-5.42-2.32-1.85-1.79-3.57-3.73-5.34-5.6-1.61-1.7-3.28-3.36-4.72-5.21a13.82,13.82,0,0,1-2.82-5.73,11.71,11.71,0,0,1,.86-6.65,28.82,28.82,0,0,1,3.55-6,54.21,54.21,0,0,1,4.28-5.18c.55-.58,1.11-1.13,1.69-1.68,1-1,2-2,3-2.93a30.29,30.29,0,0,1,5.4-3.95,5.39,5.39,0,0,1,3.13-.79,4.31,4.31,0,0,1,2.45,1.15,10.64,10.64,0,0,1,2.82,5.37A28.47,28.47,0,0,1,264.22,185.5Z"/><path class="cls-13" d="M268,206.57c.9,6.3-6.2,9.16-11.15,6.51-5.27-5.25-7.26-27,5.26-22C267.66,193.92,268.3,201,268,206.57Z"/><path class="cls-9" d="M241.36,186a14.5,14.5,0,0,1-17.57-3c-.27-.3-.8.07-.52.38a15.11,15.11,0,0,0,18.32,3.17C242,186.43,241.73,185.82,241.36,186Z"/><path class="cls-9" d="M278,188.22a17.09,17.09,0,0,1-19.87-1.78c-.32-.27-.73.23-.41.5a17.77,17.77,0,0,0,20.66,1.8C278.73,188.53,278.35,188,278,188.22Z"/><path class="cls-15" d="M273.34,115.87l-.17,2.82a14.33,14.33,0,0,1-.54,3.12,14.5,14.5,0,0,1-5.78,8,14.4,14.4,0,0,1-18.66-2A14.49,14.49,0,0,1,244.27,117l.17-2.81c-8.06-.48-7.85-10.65-4.3-12.69,2.75-1.57,4.42.78,4.85,1.48a29.06,29.06,0,0,0,5.75-.82A26.31,26.31,0,0,0,262.63,96a18.54,18.54,0,0,0,1.76-1.87,20,20,0,0,0,2.28-3.4,19.33,19.33,0,0,1,4.52,5,17.86,17.86,0,0,1,2,4.14,16.78,16.78,0,0,1,.84,4.93h0v0a0,0,0,0,1,0,0h0c.21-.29,2.29-3.12,5.11-1a3.59,3.59,0,0,1,1,1.2,6.32,6.32,0,0,1,.41,1C281.74,109.77,279.82,116.26,273.34,115.87Z"/><path class="cls-15" d="M285.54,144.7a21.07,21.07,0,0,1-2.49,4.22c-12.17,16.67-36.69,17.8-50.73,2.68a59.3,59.3,0,0,1-7.79-9.82c6.34-1.3,21.8-4.29,21.8-4.29h0l.28-1.48.93-4.88.64-3.39a14.4,14.4,0,0,0,18.66,2l.26,3.85.33,4.64C268.52,138.4,285.54,144.64,285.54,144.7Z"/><path class="cls-13" d="M260.31,117.09c-1.69,0-3.38-.07-5.06-.15,1.17-3.55,2.3-7.11,3.36-10.69.12-.38-.48-.51-.59-.13q-1.66,5.55-3.48,11c-.07.21.13.36.31.37,1.83.09,3.66.15,5.49.17C260.74,117.7,260.7,117.09,260.31,117.09Z"/><circle class="cls-13" cx="249.42" cy="114.24" r="2.4"/><circle class="cls-13" cx="268.7" cy="115.39" r="2.4"/><ellipse class="cls-10" cx="251.84" cy="107.96" rx="2.13" ry="1.72" transform="translate(129.12 352.94) rotate(-86.6)"/><ellipse class="cls-10" cx="264.84" cy="109.2" rx="2.13" ry="1.72" transform="translate(140.11 367.09) rotate(-86.6)"/><path class="cls-10" d="M254,103.16a1.27,1.27,0,0,0-.6-.71l-.3-.11a1.38,1.38,0,0,0-.64,0l-2.76.56a1.22,1.22,0,0,0-.71.59,1.26,1.26,0,0,0-.08,1,1.21,1.21,0,0,0,.59.7l.31.12a1.38,1.38,0,0,0,.64,0l2.76-.56a1.21,1.21,0,0,0,.79-1.54Z"/><path class="cls-10" d="M263,103.7a1.22,1.22,0,0,1,.67-.63L264,103a1.24,1.24,0,0,1,.63.11l2.68.88a1.19,1.19,0,0,1,.63.67,1.3,1.3,0,0,1,0,.95,1.27,1.27,0,0,1-.68.63l-.32.07a1.14,1.14,0,0,1-.63-.1l-2.67-.88a1.22,1.22,0,0,1-.63-.67A1.25,1.25,0,0,1,263,103.7Z"/><path class="cls-13" d="M266.85,129.78s-3.14,9-20.23,6.22l.93-4.87.65-3.39a14.38,14.38,0,0,0,18.65,2Z"/><path class="cls-10" d="M264.72,118.75a6.7,6.7,0,0,1-5.33,2.82c-.41,0-.34.64.07.64a7.37,7.37,0,0,0,5.76-3C265.46,118.83,265,118.42,264.72,118.75Z"/><path class="cls-2" d="M247,133.89l-.68,3.6L240,138.74,218.14,283.38c-26.14-1.87-37.23-17.52-37.23-17.52l10.37-84.74s-40.35-30.22-44.46-43.57,6.56-51,6.56-51l3.21.8L171.53,91l2.05.51v30.87l54.7,13.91A34.12,34.12,0,0,1,247,133.89Z"/><path class="cls-2" d="M267.11,133.63a18.23,18.23,0,0,1,13.75,6.72s16.26,3.58,19.3,14.3S319.65,273,319.65,273s-1.61,11.18-14.84,12.52l-7.51-11.27.36,5.19s-9.84,9.92-21.64,8.4l-8.58-149.58Z"/><path class="cls-3" d="M228.66,168.14a187.14,187.14,0,0,1-.8-19.09q0-5.45.41-10.87c0-.41-.61-.52-.64-.1A190.65,190.65,0,0,0,229,176.46q.74,5.37,1.78,10.67c.07.4.71.33.63-.07Q229.55,177.67,228.66,168.14Z"/><path class="cls-3" d="M281.33,141.7A168,168,0,0,1,278.75,159a170.92,170.92,0,0,1-4.36,17q-1.49,4.71-3.23,9.33c-.15.39.44.66.59.27a171,171,0,0,0,5.36-16.71,169.74,169.74,0,0,0,3.6-17.16c.52-3.28.93-6.57,1.26-9.87C282,141.39,281.37,141.28,281.33,141.7Z"/><path class="cls-3" d="M189.71,158.48c-.22-1.94-.41-3.89-.59-5.83a.32.32,0,0,0-.64.07q1,10.32,2.57,20.57.45,2.9,1,5.78c.07.4.71.34.64-.07Q190.85,168.79,189.71,158.48Z"/><path class="cls-3" d="M189.76,174.43q-2.73-8-5.47-15.89c-.13-.4-.73-.16-.6.23q2.75,7.95,5.47,15.9C189.29,175.06,189.89,174.83,189.76,174.43Z"/><path class="cls-3" d="M295.08,238.62q-1-16.11-2.41-32.19-.78-9.1-1.66-18.2a.32.32,0,0,0-.64.07q1.58,16.15,2.81,32.32t2.11,32.21q.49,9.12.89,18.26c0,.41.66.34.64-.08Q296.13,254.81,295.08,238.62Z"/><path class="cls-3" d="M216.78,239.75a55.27,55.27,0,0,1-6.82,11.1,56,56,0,0,1-9.19,9.15,54.86,54.86,0,0,1-6.08,4.16c-.36.21,0,.73.38.52a55.84,55.84,0,0,0,18.76-18.18,55.06,55.06,0,0,0,3.54-6.49A.32.32,0,0,0,216.78,239.75Z"/><path class="cls-3" d="M291.91,271.82a58.3,58.3,0,0,1-11.31-20.73,56.6,56.6,0,0,1-1.58-6.54c-.07-.4-.71-.34-.64.07a58.82,58.82,0,0,0,13,27.58C291.65,272.51,292.17,272.13,291.91,271.82Z"/><path class="cls-6" d="M224.73,162a86,86,0,0,0-10.34,27.19c-.24,1.22,1.67,1.52,1.91.3a84,84,0,0,1,10.19-26.69C227.12,161.75,225.36,161,224.73,162Z"/><path class="cls-6" d="M280.76,169.66c-.35-1.2-2.14-.49-1.8.7a69.94,69.94,0,0,1,2.33,27.23c-.13,1.23,1.77,1.54,1.91.3A72.36,72.36,0,0,0,280.76,169.66Z"/><path class="cls-6" d="M228.79,187q-2,18.47-4.35,36.9t-4.93,36.64q-1.47,10.26-3,20.5a.32.32,0,0,0,.64.1q2.79-18.36,5.29-36.78t4.66-36.67q1.23-10.29,2.36-20.59C229.47,186.65,228.84,186.54,228.79,187Z"/><path class="cls-6" d="M275.42,246.65q-1.26-19.29-1.61-38.61-.19-10.89-.12-21.77c0-.42-.63-.34-.64.07q-.14,19.32.6,38.63T276,263.54q.93,10.84,2.13,21.67a.32.32,0,0,0,.64-.07Q276.66,265.94,275.42,246.65Z"/></g></g></svg>